<svg width="433" height="306" viewBox="0 0 433 306" fill="none" xmlns="http://www.w3.org/2000/svg">
<g id="#237_couple_couch">
<path id="Vector" d="M273.004 262.029C273.267 262.706 268.763 280.087 267.257 282.933C265.751 285.78 256.411 303.658 261.081 304.722C265.751 305.786 282.386 287.341 283.906 285.268C285.425 283.196 291.947 265.566 291.947 265.566L273.004 262.029Z" fill="white"/>
<path id="Vector_2" d="M261.454 305.441C261.279 305.455 261.103 305.455 260.929 305.441C260.597 305.368 260.288 305.217 260.026 305C259.764 304.784 259.557 304.509 259.423 304.197C257.668 300.398 263.885 287.866 266.649 282.657C268.03 279.894 272.3 263.687 272.327 262.195C272.31 262.095 272.315 261.993 272.341 261.895C272.368 261.797 272.415 261.707 272.479 261.629C272.557 261.531 272.66 261.457 272.777 261.416C272.894 261.374 273.021 261.367 273.142 261.394L292.071 264.917C292.169 264.938 292.262 264.979 292.343 265.039C292.424 265.098 292.492 265.175 292.541 265.262C292.581 265.354 292.602 265.453 292.602 265.552C292.602 265.652 292.581 265.751 292.541 265.843C291.864 267.653 285.978 283.624 284.403 285.724C284.306 285.89 267.588 305.441 261.454 305.441ZM273.612 262.844C272.189 269.776 270.268 276.596 267.865 283.251C263.72 290.975 259.45 300.923 260.666 303.575C260.714 303.694 260.791 303.8 260.89 303.882C260.989 303.964 261.107 304.02 261.233 304.045C265.295 304.943 281.349 287.465 283.339 284.854C284.5 283.293 289.018 271.438 290.993 266.091L273.612 262.844Z" fill="#231F20"/>
<path id="Vector_3" d="M218.719 266.727C218.719 266.727 193.242 281.123 191.487 288.515C190.106 294.042 223.97 284.564 227.41 283.389C230.85 282.215 233.517 274.851 233.517 274.851L241.738 256.889L225.849 249.429L218.719 266.727Z" fill="white"/>
<path id="Vector_4" d="M195.231 290.892C193.865 291.039 192.488 290.738 191.308 290.035C191.076 289.825 190.908 289.555 190.823 289.254C190.737 288.954 190.738 288.636 190.824 288.336C192.551 281.013 215.555 267.721 218.181 266.229L225.282 249.138C225.315 249.05 225.366 248.97 225.432 248.903C225.497 248.836 225.577 248.784 225.664 248.75C225.752 248.716 225.845 248.701 225.939 248.706C226.033 248.711 226.125 248.736 226.208 248.779L242.097 256.226C242.179 256.263 242.254 256.317 242.315 256.383C242.377 256.449 242.424 256.527 242.455 256.612C242.486 256.697 242.5 256.787 242.495 256.878C242.49 256.968 242.468 257.057 242.428 257.138L234.139 275.099C234.056 275.362 231.375 282.754 227.617 284.011C227.424 284.135 204.917 290.892 195.231 290.892ZM226.277 250.327L219.369 266.906C219.312 267.046 219.21 267.163 219.079 267.238C218.816 267.39 193.836 281.566 192.178 288.584C192.178 288.805 192.178 288.874 192.261 288.944C195.107 291.555 222.077 284.384 227.272 282.657C229.883 281.787 232.246 276.509 232.937 274.547L240.936 257.207L226.277 250.327Z" fill="#231F20"/>
<path id="Vector_5" d="M384.434 103.361C384.434 103.361 376.89 73.4483 361.637 66.0565C347.82 59.3555 82.876 59.3555 69.0871 66.0565C53.889 73.4759 46.3038 103.361 46.3038 103.361C35.3811 108.191 25.6432 115.345 17.7687 124.325C9.89421 133.304 4.07255 143.893 0.709473 155.352L33.7861 220.027H396.966L430.042 155.352C426.678 143.891 420.854 133.302 412.977 124.322C405.1 115.343 395.359 108.19 384.434 103.361Z" fill="white"/>
<path id="Vector_6" d="M396.965 220.718H33.7584C33.6324 220.719 33.5088 220.684 33.4014 220.618C33.294 220.552 33.2071 220.458 33.1505 220.345L0.0739053 155.67C0.0124743 155.52 0.0124743 155.351 0.0739053 155.2C0.156804 154.841 8.83354 119.278 45.7649 102.864C46.6216 99.3956 54.1101 72.5917 68.7832 65.4072C82.4891 58.7476 348.249 58.7476 361.941 65.4072C376.614 72.5503 384.047 99.3956 385.014 102.864C421.959 119.291 430.609 154.841 430.719 155.2C430.773 155.352 430.773 155.518 430.719 155.67L397.643 220.345C397.577 220.465 397.478 220.564 397.358 220.63C397.239 220.696 397.102 220.727 396.965 220.718ZM34.1867 219.336H396.551L429.31 155.269C428.481 152.133 419.113 119.347 384.158 103.997C384.061 103.951 383.976 103.886 383.906 103.805C383.837 103.724 383.786 103.629 383.757 103.527C383.688 103.237 376.116 73.8352 361.333 66.6506C347.696 60.0187 83.0417 60.0187 69.3911 66.6506C54.6075 73.849 47.0499 103.237 46.967 103.527C46.9399 103.628 46.8914 103.723 46.8246 103.804C46.7579 103.885 46.6745 103.951 46.5801 103.997C11.583 119.388 2.24309 152.133 1.4141 155.269L34.1867 219.336Z" fill="#D1D3D4"/>
<path id="Vector_7" d="M354.383 185.624H354.19C354.102 185.6 354.019 185.559 353.948 185.503C353.876 185.446 353.816 185.376 353.772 185.296C353.728 185.216 353.701 185.128 353.692 185.037C353.683 184.946 353.693 184.855 353.72 184.768C353.872 184.215 369.844 128.783 380.662 111.388C380.709 111.31 380.771 111.241 380.845 111.187C380.918 111.133 381.002 111.095 381.092 111.074C381.181 111.053 381.273 111.051 381.363 111.067C381.453 111.083 381.539 111.117 381.615 111.167C381.768 111.264 381.876 111.416 381.917 111.592C381.959 111.768 381.93 111.952 381.837 112.107C371.115 129.35 355.198 184.588 355.046 185.154C354.998 185.292 354.908 185.41 354.789 185.495C354.671 185.579 354.529 185.624 354.383 185.624Z" fill="#D1D3D4"/>
<path id="Vector_8" d="M395.114 274.851H401.912C397.767 269.559 390.458 259.28 388.372 233.401L371.626 238.928C371.626 238.928 380.662 265.069 395.114 274.851Z" fill="white"/>
<path id="Vector_9" d="M401.912 275.542H395.114C394.978 275.539 394.844 275.501 394.727 275.431C380.248 265.621 371.35 240.324 370.977 239.246C370.939 239.163 370.92 239.074 370.92 238.983C370.92 238.893 370.939 238.803 370.977 238.721C371.016 238.637 371.072 238.562 371.141 238.501C371.21 238.439 371.29 238.392 371.377 238.362L388.123 232.835C388.224 232.8 388.331 232.789 388.437 232.804C388.543 232.818 388.643 232.857 388.731 232.918C388.821 232.974 388.895 233.051 388.948 233.143C389.001 233.234 389.031 233.337 389.035 233.443C391.19 260.302 399.066 270.236 402.423 274.478C402.503 274.58 402.553 274.703 402.568 274.832C402.582 274.961 402.561 275.092 402.506 275.21C402.445 275.313 402.358 275.398 402.254 275.456C402.149 275.514 402.031 275.544 401.912 275.542ZM395.335 274.16H400.489C396.758 269.324 389.878 258.962 387.764 234.369L372.566 239.453C374.03 243.529 382.596 265.4 395.335 274.16Z" fill="#D1D3D4"/>
<path id="Vector_10" d="M37.9448 274.851H31.1609C35.3059 269.559 42.6148 259.28 44.6873 233.401L61.4466 238.928C61.4466 238.928 52.4107 265.069 37.9448 274.851Z" fill="white"/>
<path id="Vector_11" d="M37.9449 275.542H31.161C31.0309 275.545 30.9025 275.511 30.7919 275.442C30.6814 275.373 30.5935 275.273 30.5393 275.155C30.4809 275.038 30.4577 274.906 30.4724 274.776C30.4871 274.646 30.5391 274.524 30.6222 274.423C33.9796 270.181 41.8412 260.247 44.0103 233.388C44.018 233.284 44.0491 233.183 44.1013 233.092C44.1536 233.002 44.2256 232.925 44.3121 232.866C44.3985 232.808 44.497 232.769 44.6003 232.754C44.7036 232.739 44.8089 232.748 44.9084 232.78L61.6678 238.306C61.8421 238.371 61.9853 238.499 62.0685 238.666C62.1308 238.835 62.1308 239.021 62.0685 239.191C61.6954 240.268 52.7838 265.566 38.3041 275.376C38.2015 275.462 38.0774 275.52 37.9449 275.542ZM32.5841 274.16H37.7377C50.4626 265.4 59.0427 243.529 60.5486 239.453L45.3505 234.369C43.1952 258.907 36.3007 269.324 32.5841 274.16Z" fill="#D1D3D4"/>
<path id="Vector_12" d="M399.674 143.719C389.284 151.76 384.351 210.715 384.862 212.276H47.271C47.7822 210.715 42.8497 151.76 32.4597 143.719C22.7882 136.258 -2.59263 139.035 1.0411 165.521C1.0411 165.521 2.33985 183.704 13.4759 215.122C22.5533 240.572 23.8935 243.916 60.2446 243.916H371.889C408.24 243.916 409.58 240.531 418.63 215.081C429.793 183.662 431.065 165.48 431.065 165.48C434.726 139.035 409.276 136.258 399.674 143.719Z" fill="white"/>
<path id="Vector_13" d="M371.889 244.648H60.2446C23.2579 244.648 21.8763 240.738 12.8541 215.357C1.80097 184.215 0.419325 165.756 0.350243 165.618C-1.12812 154.869 2.10493 146.579 9.45529 142.323C17.455 137.709 27.6516 139.146 32.9433 143.208C38.5804 147.574 42.4352 165.825 44.6873 180.36C46.3544 190.716 47.4751 201.153 48.0447 211.627H384.199C384.75 201.154 385.853 190.717 387.501 180.36C389.753 165.825 393.608 147.574 399.245 143.208C404.482 139.146 414.678 137.681 422.733 142.337C430.084 146.579 433.317 154.869 431.838 165.659C431.838 165.798 430.457 184.256 419.334 215.399C410.257 240.738 408.875 244.648 371.889 244.648ZM20.5223 140.831C16.9096 140.801 13.3516 141.715 10.2014 143.484C3.37605 147.435 0.377879 155.228 1.77334 165.438C1.77334 165.659 3.15499 183.939 14.2082 214.901C23.1474 240.033 24.2942 243.266 60.2999 243.266H371.889C407.894 243.266 409.041 240.033 417.98 214.901C429.034 183.939 430.415 165.659 430.415 165.48C431.797 155.228 428.826 147.435 422.001 143.484C414.609 139.215 404.882 140.555 400.102 144.258C390.32 151.843 385.083 209.319 385.553 212.11C385.587 212.211 385.594 212.318 385.575 212.422C385.556 212.526 385.51 212.623 385.443 212.704C385.376 212.79 385.29 212.859 385.191 212.905C385.093 212.951 384.985 212.972 384.876 212.967H47.2709C47.1604 212.966 47.0515 212.94 46.9531 212.889C46.8547 212.839 46.7695 212.766 46.7045 212.677C46.6422 212.587 46.6012 212.485 46.5844 212.377C46.5677 212.269 46.5756 212.159 46.6077 212.055C47.0637 209.292 41.8273 151.843 32.0452 144.258C28.6627 141.927 24.6288 140.727 20.5223 140.831Z" fill="#D1D3D4"/>
<path id="Vector_14" d="M411.874 172.802C417.612 172.802 422.264 168.151 422.264 162.412C422.264 156.674 417.612 152.023 411.874 152.023C406.135 152.023 401.484 156.674 401.484 162.412C401.484 168.151 406.135 172.802 411.874 172.802Z" fill="white"/>
<path id="Vector_15" d="M411.874 173.452C409.687 173.452 407.55 172.804 405.733 171.589C403.915 170.375 402.498 168.648 401.662 166.629C400.825 164.609 400.606 162.386 401.033 160.242C401.459 158.098 402.512 156.129 404.058 154.583C405.604 153.037 407.573 151.984 409.717 151.558C411.861 151.131 414.084 151.35 416.103 152.187C418.123 153.023 419.849 154.44 421.064 156.258C422.278 158.076 422.927 160.213 422.927 162.399C422.927 165.33 421.762 168.142 419.689 170.214C417.616 172.287 414.805 173.452 411.874 173.452ZM411.874 152.727C409.961 152.727 408.091 153.294 406.5 154.357C404.91 155.42 403.67 156.93 402.938 158.698C402.206 160.465 402.015 162.409 402.388 164.286C402.761 166.162 403.682 167.885 405.035 169.237C406.387 170.59 408.111 171.511 409.987 171.884C411.863 172.258 413.807 172.066 415.575 171.334C417.342 170.602 418.852 169.362 419.915 167.772C420.978 166.181 421.545 164.312 421.545 162.399C421.545 159.834 420.526 157.374 418.712 155.56C416.899 153.746 414.439 152.727 411.874 152.727Z" fill="#D1D3D4"/>
<path id="Vector_16" d="M23.3685 172.802C29.1067 172.802 33.7585 168.151 33.7585 162.412C33.7585 156.674 29.1067 152.023 23.3685 152.023C17.6303 152.023 12.9785 156.674 12.9785 162.412C12.9785 168.151 17.6303 172.802 23.3685 172.802Z" fill="white"/>
<path id="Vector_17" d="M23.3685 173.452C21.1824 173.452 19.0454 172.804 17.2277 171.589C15.41 170.375 13.9933 168.648 13.1567 166.629C12.3201 164.609 12.1012 162.386 12.5277 160.242C12.9542 158.098 14.0069 156.129 15.5527 154.583C17.0985 153.037 19.068 151.984 21.2121 151.558C23.3562 151.131 25.5786 151.35 27.5983 152.187C29.618 153.023 31.3443 154.44 32.5588 156.258C33.7734 158.076 34.4216 160.213 34.4216 162.399C34.4216 165.33 33.2571 168.142 31.1842 170.214C29.1114 172.287 26.3 173.452 23.3685 173.452ZM23.3685 152.727C21.4556 152.727 19.5857 153.294 17.9953 154.357C16.4048 155.42 15.1652 156.93 14.4332 158.698C13.7011 160.465 13.5096 162.409 13.8828 164.286C14.256 166.162 15.1771 167.885 16.5297 169.237C17.8823 170.59 19.6056 171.511 21.4817 171.884C23.3577 172.258 25.3024 172.066 27.0696 171.334C28.8368 170.602 30.3473 169.362 31.4101 167.772C32.4728 166.181 33.04 164.312 33.04 162.399C33.04 159.834 32.021 157.374 30.2073 155.56C28.3935 153.746 25.9335 152.727 23.3685 152.727Z" fill="#D1D3D4"/>
<path id="Vector_18" d="M384.862 212.967C384.707 212.965 384.556 212.912 384.434 212.815L350.598 185.624H76.6309L47.7407 212.773C47.6745 212.836 47.5966 212.885 47.5115 212.918C47.4263 212.95 47.3356 212.965 47.2445 212.963C47.1534 212.96 47.0637 212.94 46.9806 212.903C46.8974 212.865 46.8224 212.812 46.7598 212.746C46.6972 212.68 46.6482 212.602 46.6157 212.517C46.5832 212.431 46.5678 212.341 46.5704 212.25C46.573 212.159 46.5935 212.069 46.6307 211.986C46.6679 211.903 46.7212 211.827 46.7874 211.765L75.8849 184.422C76.014 184.306 76.1813 184.243 76.3546 184.242H350.846C351.002 184.244 351.152 184.298 351.275 184.394L385.304 211.737C385.375 211.794 385.435 211.864 385.478 211.943C385.521 212.023 385.548 212.11 385.557 212.2C385.567 212.291 385.557 212.382 385.53 212.468C385.504 212.555 385.46 212.635 385.401 212.704C385.336 212.785 385.254 212.85 385.161 212.896C385.068 212.941 384.966 212.965 384.862 212.967Z" fill="#D1D3D4"/>
<path id="Vector_19" d="M76.3546 185.624C76.2046 185.626 76.058 185.579 75.938 185.489C75.818 185.399 75.7312 185.271 75.6914 185.127C75.5256 184.505 59.6091 129.322 48.8875 112.079C48.8377 112.004 48.8038 111.919 48.7879 111.83C48.7721 111.741 48.7746 111.65 48.7953 111.562C48.816 111.474 48.8545 111.391 48.9083 111.318C48.9622 111.246 49.0303 111.185 49.1086 111.14C49.1851 111.09 49.2709 111.055 49.361 111.039C49.451 111.023 49.5434 111.026 49.6325 111.046C49.7216 111.067 49.8056 111.106 49.8794 111.16C49.9532 111.214 50.0153 111.282 50.0619 111.361C60.8802 128.756 76.8382 184.187 77.004 184.74C77.0294 184.827 77.0374 184.918 77.0275 185.008C77.0177 185.099 76.9901 185.186 76.9465 185.266C76.9029 185.345 76.844 185.415 76.7733 185.472C76.7026 185.529 76.6213 185.571 76.5342 185.597L76.3546 185.624Z" fill="#D1D3D4"/>
<path id="Vector_20" d="M178.279 104.535C178.279 104.535 111.559 102.67 92.962 112.438C92.962 112.438 85.9847 105.931 84.1195 112.438C82.2543 118.946 94.8273 189.189 98.5439 187.793C100.927 186.864 103.18 185.628 105.245 184.118C105.245 184.118 163.274 182.142 186.499 173.258C186.499 173.258 193.518 179.49 195.839 175.317C198.161 171.145 187.052 97.558 184.289 98.4976C181.526 99.4371 178.279 104.535 178.279 104.535Z" fill="white"/>
<path id="Vector_21" d="M98.4334 188.512C98.1144 188.503 97.8116 188.369 97.5906 188.139C94.5095 185.293 89.204 156.748 88.1677 151.055C85.211 134.78 82.4753 115.685 83.4563 112.259C83.5773 111.515 83.8984 110.819 84.3853 110.245C84.8721 109.67 85.5063 109.239 86.2196 108.998C88.8033 108.28 91.9811 110.711 93.0449 111.623C111.587 102.394 171.937 103.679 177.892 103.831C178.693 102.656 181.498 98.6909 184.095 97.8343C184.289 97.7775 184.496 97.7829 184.687 97.8498C184.878 97.9167 185.043 98.0418 185.159 98.2074C188.807 102.629 198.81 171.435 196.434 175.662C196.195 176.115 195.856 176.507 195.441 176.806C195.026 177.106 194.548 177.306 194.043 177.39C191.28 177.859 187.467 174.972 186.348 174.046C163.702 182.474 109.376 184.643 105.466 184.795C103.398 186.293 101.146 187.519 98.765 188.443C98.6587 188.483 98.5468 188.506 98.4334 188.512ZM87.242 110.242C87.0274 110.24 86.8135 110.268 86.6065 110.324C85.7637 110.559 85.2248 111.333 84.7827 112.632C82.8622 119.388 94.7444 183.8 98.4748 187.089C100.73 186.179 102.864 184.996 104.83 183.565C104.941 183.48 105.077 183.431 105.217 183.427C105.798 183.427 163.343 181.355 186.251 172.609C186.368 172.563 186.496 172.551 186.62 172.573C186.745 172.595 186.861 172.65 186.955 172.733C188.13 173.783 191.653 176.395 193.864 176.035C194.159 175.979 194.438 175.855 194.678 175.673C194.918 175.491 195.112 175.255 195.245 174.985C197.193 171.518 187.342 104.107 184.192 99.2712C182.147 100.197 179.646 103.61 178.818 104.908C178.759 105.015 178.669 105.102 178.561 105.159C178.453 105.215 178.331 105.239 178.21 105.226C177.546 105.226 111.476 103.485 93.2384 113.06C93.1128 113.129 92.9682 113.156 92.8262 113.136C92.6842 113.116 92.5525 113.051 92.4508 112.95C91.608 112.134 89.1349 110.242 87.242 110.242Z" fill="#D1D3D4"/>
<path id="Vector_22" d="M88.0295 116.21C88.0295 116.21 93.8462 159.691 98.7372 181.327C99.7168 159.114 96.0705 136.94 88.0295 116.21Z" fill="#D1D3D4"/>
<path id="Vector_23" d="M286.102 149.19C286.102 149.19 255.071 169.998 248.715 179.324C242.359 188.65 216.744 259.197 216.744 259.197L241.71 263.977C241.71 263.977 274.731 197.05 289.1 188.982C303.47 180.913 334.985 151.138 334.985 151.138L286.102 149.19Z" fill="#233863"/>
<path id="Vector_24" d="M241.71 264.64H241.586L216.605 259.86C216.507 259.839 216.414 259.798 216.333 259.738C216.252 259.679 216.185 259.602 216.136 259.515C216.095 259.426 216.074 259.329 216.074 259.231C216.074 259.134 216.095 259.037 216.136 258.948C217.186 256.06 241.862 188.235 248.19 178.923C254.518 169.611 284.5 149.453 285.771 148.596C285.889 148.518 286.03 148.479 286.171 148.485L335.054 150.434C335.191 150.434 335.324 150.477 335.435 150.556C335.546 150.635 335.63 150.747 335.676 150.876C335.723 151.003 335.732 151.141 335.703 151.273C335.673 151.406 335.606 151.527 335.51 151.622C335.192 151.912 303.732 181.534 289.487 189.562C275.464 197.451 242.705 263.604 242.373 264.267C242.311 264.388 242.215 264.487 242.098 264.553C241.98 264.62 241.845 264.65 241.71 264.64ZM217.669 258.644L241.323 263.259C244.542 256.779 274.856 196.249 288.769 188.429C301.314 181.382 327.455 157.314 333.313 151.815L286.337 149.936C283.74 151.691 255.264 171.034 249.323 179.78C243.382 188.526 220.46 251.004 217.669 258.672V258.644Z" fill="#231F20"/>
<path id="Vector_25" d="M349.851 159.635C349.851 159.635 350.349 178.826 344.049 186.605C337.748 194.384 305.874 215.716 305.874 215.716L291.905 271.466L268.21 266.713C268.21 266.713 273.737 213.395 283.408 197.727C289.529 187.862 319.966 153.971 319.966 153.971L349.851 159.635Z" fill="#233863"/>
<path id="Vector_26" d="M291.905 272.17H291.767L268.072 267.404C267.903 267.37 267.754 267.275 267.651 267.137C267.549 267 267.502 266.828 267.519 266.658C267.754 264.475 273.156 212.995 282.855 197.382C288.935 187.572 318.253 154.91 319.497 153.529C319.574 153.439 319.674 153.372 319.785 153.333C319.896 153.295 320.016 153.286 320.132 153.307L349.976 158.903C350.132 158.932 350.274 159.013 350.377 159.134C350.48 159.255 350.538 159.407 350.542 159.566C350.542 160.354 350.97 179.089 344.587 186.978C338.508 194.494 309.549 214.086 306.468 216.145L292.568 271.659C292.527 271.804 292.44 271.932 292.321 272.024C292.202 272.116 292.056 272.167 291.905 272.17ZM268.97 266.16L291.394 270.664L305.21 215.537C305.25 215.37 305.355 215.226 305.501 215.136C305.818 214.929 337.361 193.707 343.523 186.122C349.05 179.365 349.202 163.352 349.174 160.174L320.27 154.758C317.3 158.088 289.764 188.912 284.044 198.114C275.063 212.539 269.619 260.136 268.97 266.16Z" fill="#231F20"/>
<path id="Vector_27" d="M216.744 90.8018C216.605 91.0367 217.946 104.618 231.306 104.452L239.472 77.3445C239.472 77.3445 218.664 87.5135 216.744 90.8018Z" fill="white"/>
<path id="Vector_28" d="M231.113 105.143C228.542 105.263 225.988 104.666 223.737 103.419C221.485 102.172 219.624 100.325 218.36 98.0831C216.481 94.85 215.832 91.0091 216.15 90.4564C218.112 87.0852 237.026 77.7867 239.182 76.7367C239.301 76.6748 239.437 76.65 239.57 76.6655C239.704 76.681 239.83 76.736 239.933 76.8235C240.035 76.911 240.109 77.027 240.145 77.1568C240.181 77.2865 240.177 77.4241 240.135 77.5518L231.969 104.646C231.925 104.785 231.838 104.907 231.722 104.996C231.606 105.085 231.466 105.136 231.32 105.143H231.113ZM217.448 91.0091C217.856 94.3791 219.305 97.538 221.593 100.045C222.807 101.255 224.252 102.208 225.843 102.847C227.433 103.486 229.137 103.797 230.85 103.762L238.422 78.671C230.27 82.6777 219.051 88.7432 217.448 91.0091Z" fill="#231F20"/>
<path id="Vector_29" d="M283.45 65.9322C283.45 65.9322 289.363 58.3055 302.793 56.0949C316.222 53.8842 347.005 50.1261 353.264 56.0949C359.523 62.0636 358.708 89.2544 358.708 89.2544H355.337C355.337 89.2544 358.735 136.507 351.578 163.96C351.578 163.96 286.171 150.793 270.282 145.736C270.352 145.819 278.116 73.5174 283.45 65.9322Z" fill="#AFC3FE"/>
<path id="Vector_30" d="M324.484 11.2881C322.936 10.7048 321.243 10.6274 319.649 11.067C318.138 9.33699 316.296 7.92724 314.232 6.92106C312.167 5.91488 309.922 5.33268 307.628 5.20885C305.455 5.08128 303.279 5.41409 301.244 6.18552C299.208 6.95695 297.358 8.14959 295.815 9.68539C291.38 14.2725 290.62 21.2359 290.828 27.6468C291.09 36.4064 294.185 46.6997 302.558 50.8584C310.392 54.7547 319.87 52.2401 327.579 49.0761C329.569 48.2609 333.99 46.0641 333.88 43.3146C333.783 40.8553 329.348 40.123 327.538 39.1697C330.204 33.8918 333.424 27.6468 332.691 21.5261C332.202 19.3038 331.207 17.2242 329.783 15.4487C328.36 13.6732 326.547 12.2495 324.484 11.2881Z" fill="white"/>
<path id="Vector_31" d="M311.552 53.4973C308.33 53.549 305.14 52.8439 302.24 51.4387C295.014 47.8326 290.482 39.0039 290.137 27.6329C289.86 19.0115 291.518 13.1533 295.318 9.21559C296.926 7.6056 298.857 6.35457 300.984 5.54488C303.11 4.73518 305.384 4.38521 307.656 4.51799C312.335 4.77674 316.728 6.85424 319.897 10.3071C321.502 9.9362 323.181 10.0516 324.719 10.6387C326.911 11.6374 328.836 13.1387 330.339 15.0208C331.842 16.9028 332.879 19.1126 333.368 21.4708C334.101 27.55 331.172 33.5464 328.477 38.8519C328.809 38.9901 329.182 39.1144 329.569 39.2526C331.752 40.0263 334.474 40.9935 334.57 43.287C334.709 46.5339 329.914 48.8136 327.842 49.7116C322.708 52.0161 317.176 53.3018 311.552 53.4973ZM306.855 5.87201C304.9 5.85371 302.962 6.22417 301.152 6.96185C299.342 7.69952 297.697 8.78968 296.313 10.1689C292.776 13.8303 291.256 19.3569 291.518 27.5777C291.643 31.6259 292.831 45.2075 302.862 50.1952C308.982 53.2487 316.982 52.6545 327.317 48.3991C330.08 47.2661 333.272 45.2489 333.189 43.3008C333.189 41.9192 330.895 41.1454 329.113 40.5375C328.466 40.3306 327.834 40.0814 327.22 39.7914C327.057 39.7086 326.934 39.5647 326.877 39.3913C326.82 39.2178 326.834 39.0289 326.916 38.8657L327.054 38.6032C329.693 33.3806 332.705 27.4395 332.001 21.6228C331.525 19.529 330.581 17.5704 329.238 15.895C327.895 14.2196 326.19 12.8711 324.249 11.9512C322.829 11.4164 321.276 11.3486 319.814 11.7578C319.689 11.787 319.558 11.7805 319.435 11.739C319.313 11.6975 319.205 11.6227 319.124 11.5229C317.668 9.86893 315.899 8.52021 313.919 7.55493C311.939 6.58965 309.786 6.02702 307.587 5.89964L306.855 5.87201Z" fill="#231F20"/>
<path id="Vector_32" d="M308.637 55.2106L309.646 65.9046C309.646 65.9046 314.758 73.5865 322.854 69.6626C330.951 65.7387 330.743 61.2622 330.743 61.2622L326.778 35.8261C326.778 35.8261 319.704 33.8227 318.557 19.6609C312.22 24.1909 304.779 26.9304 297.017 27.5915C297.017 27.5915 296.396 43.3699 298.869 49.7669C301.342 56.164 308.637 55.2106 308.637 55.2106Z" fill="white"/>
<path id="Vector_33" d="M318.308 71.4588C312.588 71.4588 309.093 66.3467 309.051 66.2914C308.988 66.1965 308.95 66.0872 308.941 65.9736L308.001 56.012C306.012 56.012 300.402 55.6804 298.247 50.0847C295.746 43.6324 296.313 28.2823 296.34 27.633C296.349 27.4647 296.419 27.3052 296.535 27.1836C296.652 27.0619 296.808 26.986 296.976 26.9698C304.6 26.3041 311.907 23.6139 318.143 19.1773C318.241 19.0996 318.359 19.0508 318.483 19.0361C318.608 19.0215 318.734 19.0417 318.847 19.0944C318.965 19.1416 319.066 19.2213 319.139 19.3241C319.213 19.4269 319.255 19.5485 319.262 19.6747C320.339 33.1043 326.916 35.2182 326.985 35.232C327.113 35.2655 327.228 35.3357 327.317 35.4339C327.405 35.5321 327.463 35.6541 327.483 35.7847L331.448 61.2208C331.448 61.4971 331.558 66.2638 323.158 70.3534C321.646 71.0855 319.988 71.4636 318.308 71.4588ZM310.295 65.6835C311.027 66.6921 315.587 72.4397 322.55 69.0685C330.052 65.421 330.066 61.3451 330.066 61.3175L326.17 36.365C324.595 35.6879 319.262 32.5792 318.004 20.9596C311.935 25.0101 304.967 27.5146 297.708 28.2547C297.625 31.1838 297.404 44.0469 299.532 49.5459C301.77 55.3488 308.264 54.5889 308.526 54.5474C308.714 54.5338 308.9 54.5877 309.051 54.6994C309.195 54.817 309.289 54.9849 309.314 55.1692L310.295 65.6835Z" fill="#231F20"/>
<path id="Vector_34" d="M323.531 42.762C324.431 42.9433 325.359 42.9451 326.259 42.7672C327.16 42.5894 328.017 42.2355 328.781 41.7258C329.828 40.9797 330.664 39.9758 331.209 38.8114C331.754 37.6471 331.988 36.3617 331.89 35.08C331.897 34.1235 331.684 33.1782 331.268 32.3167C331.065 31.8866 330.771 31.5057 330.406 31.2003C330.041 30.895 329.614 30.6725 329.154 30.5482C328.005 30.4244 326.846 30.6765 325.852 31.2667C324.305 31.9713 324.263 32.8279 323.324 34.03C323.434 33.9194 323.517 33.5879 323.614 33.4773" fill="white"/>
<path id="Vector_35" d="M324.913 43.5771C324.402 43.5751 323.893 43.5242 323.393 43.4251C323.302 43.407 323.216 43.3711 323.139 43.3197C323.062 43.2682 322.996 43.2021 322.945 43.1251C322.894 43.0481 322.858 42.9618 322.84 42.871C322.822 42.7803 322.822 42.6869 322.84 42.5961C322.858 42.5054 322.894 42.4192 322.946 42.3423C322.997 42.2654 323.063 42.1994 323.14 42.1481C323.217 42.0968 323.304 42.0611 323.394 42.0432C323.485 42.0252 323.579 42.0253 323.669 42.0435C325.305 42.3696 327.003 42.037 328.394 41.1178C329.337 40.4322 330.087 39.515 330.571 38.4548C331.055 37.3946 331.257 36.2274 331.158 35.0662C331.17 34.2158 330.985 33.3742 330.619 32.6068C330.455 32.2732 330.222 31.9778 329.937 31.7398C329.651 31.5018 329.319 31.3264 328.961 31.2252C327.962 31.1436 326.962 31.3754 326.101 31.8884C325.402 32.1908 324.841 32.7424 324.526 33.4358C324.331 33.7734 324.119 34.1008 323.89 34.4168L323.807 34.5273C323.688 34.6586 323.524 34.7401 323.347 34.7554C323.17 34.7708 322.994 34.7189 322.854 34.6102C322.714 34.4986 322.622 34.3367 322.599 34.1587C322.576 33.9808 322.623 33.8008 322.73 33.6569C322.73 33.6569 322.73 33.6569 322.73 33.574C322.786 33.4017 322.875 33.2421 322.992 33.1042C323.036 33.0511 323.087 33.0046 323.144 32.9661L323.269 32.7726C323.728 31.8336 324.507 31.089 325.465 30.6725C326.595 30.0246 327.904 29.7626 329.196 29.9264C329.751 30.0725 330.269 30.3354 330.714 30.6975C331.16 31.0597 331.523 31.5128 331.779 32.0265C332.235 32.9848 332.471 34.0327 332.47 35.0938C332.573 36.4923 332.313 37.8938 331.716 39.1623C331.118 40.4307 330.202 41.5232 329.058 42.3336C327.824 43.1382 326.385 43.5699 324.913 43.5771Z" fill="#231F20"/>
<path id="Vector_36" d="M309.286 62.3122C310.734 62.2352 312.14 61.8012 313.379 61.0491C314.618 60.297 315.652 59.25 316.388 58.0015C319.358 53.5526 318.405 50.5682 318.405 50.5682C315.867 53.3134 312.369 54.9758 308.637 55.2106L309.286 62.3122Z" fill="#231F20"/>
<path id="Vector_37" d="M309.342 63.0031H309.259C309.093 62.9969 308.936 62.9302 308.816 62.8156C308.696 62.701 308.623 62.5465 308.609 62.3814L307.932 55.2797C307.926 55.1846 307.939 55.0893 307.969 54.9991C308 54.909 308.049 54.8259 308.112 54.7547C308.241 54.6147 308.419 54.5305 308.609 54.5198C312.151 54.2957 315.471 52.7176 317.88 50.1123C317.964 50.0241 318.069 49.9579 318.184 49.9193C318.3 49.8808 318.423 49.8712 318.543 49.8913C318.663 49.9161 318.774 49.9729 318.864 50.0556C318.954 50.1383 319.02 50.2439 319.055 50.361C319.055 50.4992 320.077 53.7046 316.954 58.3884C316.159 59.7214 315.05 60.8391 313.723 61.6436C312.395 62.4481 310.891 62.9149 309.342 63.0031ZM309.342 55.86L309.88 61.58C311.094 61.3922 312.253 60.9412 313.274 60.2586C314.296 59.576 315.156 58.6783 315.794 57.6285C316.966 56.0081 317.669 54.0958 317.825 52.1019C315.476 54.2198 312.515 55.5359 309.369 55.86H309.342Z" fill="#231F20"/>
<path id="Vector_38" d="M307.918 43.439C307.304 43.4641 306.698 43.2896 306.191 42.9416C304.81 41.8639 306.371 37.2492 307.974 33.5878C308.05 33.4262 308.185 33.3004 308.352 33.2366C308.519 33.1728 308.704 33.1762 308.868 33.2459C309.033 33.3156 309.164 33.4462 309.234 33.6104C309.304 33.7747 309.308 33.9597 309.245 34.1267C307.711 37.6499 306.689 41.2698 307.048 41.8777C307.739 42.3751 309.646 41.7948 310.461 41.4218C310.621 41.3686 310.796 41.3762 310.951 41.4432C311.107 41.5103 311.232 41.6321 311.304 41.7854C311.375 41.9388 311.388 42.1132 311.34 42.2753C311.291 42.4375 311.185 42.5763 311.041 42.6652C310.061 43.1246 309 43.3874 307.918 43.439Z" fill="#231F20"/>
<path id="Vector_39" d="M308.886 52.696C307.992 52.7172 307.117 52.4401 306.399 51.9084C303.912 49.9189 303.926 45.8016 303.926 45.6358C303.926 45.4746 303.983 45.3186 304.087 45.195C304.19 45.0714 304.333 44.9878 304.492 44.9588C314.799 43.2041 314.882 43.2732 315.2 43.5771C315.276 43.6392 315.337 43.7171 315.38 43.8054C315.423 43.8936 315.447 43.9902 315.448 44.0883C315.536 45.7101 315.237 47.3294 314.578 48.8136C314.166 49.74 313.549 50.5608 312.773 51.2142C311.998 51.8675 311.084 52.3364 310.101 52.5854C309.702 52.6678 309.294 52.7048 308.886 52.696ZM305.335 46.2161C305.38 47.9353 306.065 49.5758 307.255 50.8169C307.628 51.0627 308.049 51.2246 308.491 51.2914C308.932 51.3582 309.383 51.3283 309.811 51.2038C310.593 51.0024 311.317 50.6251 311.93 50.1007C312.543 49.5763 313.028 48.9186 313.348 48.178C313.823 47.1213 314.077 45.9788 314.094 44.8206C312.464 45.0417 308.319 45.7187 305.335 46.2161Z" fill="#231F20"/>
<path id="Vector_40" d="M303.24 34.3934C303.741 34.3386 304.045 33.3656 303.919 32.2203C303.794 31.0749 303.286 30.1908 302.786 30.2457C302.285 30.3005 301.981 31.2734 302.106 32.4188C302.232 33.5642 302.739 34.4483 303.24 34.3934Z" fill="#231F20"/>
<path id="Vector_41" d="M314.455 32.3141C314.956 32.2592 315.26 31.2863 315.135 30.1409C315.009 28.9955 314.502 28.1115 314.001 28.1663C313.5 28.2211 313.196 29.1941 313.322 30.3394C313.447 31.4848 313.955 32.3689 314.455 32.3141Z" fill="#231F20"/>
<path id="Vector_42" d="M183.722 148.803L168.524 160.865C168.524 160.865 127.282 172.913 111.725 179.918C111.725 179.918 78.662 180.305 77.4876 186.536C76.3132 192.767 100.05 194.315 100.05 194.315L225.738 181.479C225.738 181.479 217.296 147.753 183.722 148.803Z" fill="white"/>
<path id="Vector_43" d="M100.147 195.006C99.2623 195.006 81.2041 193.721 77.5152 188.968C77.2214 188.618 77.0084 188.207 76.8913 187.765C76.7743 187.324 76.7562 186.861 76.8381 186.412C77.0454 185.32 77.6671 182.004 94.993 180.208C102.744 179.393 110.454 179.255 111.573 179.227C126.66 172.471 165.623 160.989 168.22 160.23L183.294 148.264C183.405 148.167 183.547 148.113 183.695 148.112C217.448 147.049 226.318 180.968 226.401 181.272C226.426 181.367 226.428 181.465 226.409 181.561C226.39 181.657 226.35 181.747 226.291 181.825C226.237 181.906 226.166 181.975 226.082 182.025C225.998 182.075 225.904 182.106 225.807 182.115L100.147 195.006ZM183.971 149.48L168.98 161.404C168.912 161.46 168.832 161.498 168.745 161.514C168.331 161.639 127.379 173.645 112.098 180.554C112.007 180.574 111.912 180.574 111.821 180.554C99.2623 180.706 79.035 182.474 78.2612 186.605C78.2171 186.863 78.2314 187.127 78.3032 187.378C78.3749 187.629 78.5022 187.861 78.6757 188.056C81.439 191.607 95.1449 193.237 100.188 193.582L224.909 180.83C223.32 175.911 213.649 148.72 183.971 149.48Z" fill="#231F20"/>
<path id="Vector_44" d="M201.615 175.124C201.615 175.124 116.809 189.645 110.578 188.484C104.347 187.324 100.464 185.721 96.1951 186.923C91.9258 188.125 67.4016 198.598 73.2321 201.32C79.0627 204.042 105.521 202.48 107.856 201.32C110.191 200.159 218.388 202.826 218.388 202.826C218.388 202.826 225.338 177.721 201.615 175.124Z" fill="white"/>
<path id="Vector_45" d="M88.1953 203.544C81.6739 203.544 75.4704 203.116 72.9972 201.941C72.6069 201.812 72.2699 201.558 72.0378 201.219C71.8057 200.879 71.6914 200.473 71.7123 200.062C72.0991 195.6 93.0034 187.089 96.0569 186.246C99.4557 185.32 102.606 186.025 106.599 186.909C107.87 187.199 109.252 187.503 110.744 187.78C115.566 188.705 172.227 179.49 201.518 174.433H201.711C208.62 175.179 213.594 177.846 216.647 182.363C222.353 190.792 219.175 202.522 219.037 203.088C218.982 203.229 218.887 203.35 218.765 203.438C218.642 203.526 218.497 203.578 218.346 203.586C175.515 202.522 110.813 201.237 108.146 202.024C106.53 202.757 97.0655 203.544 88.1953 203.544ZM99.3728 187.268C98.3605 187.261 97.3519 187.391 96.3747 187.655C91.8868 189.194 87.5104 191.041 83.2767 193.182C75.8572 196.857 73.1216 199.247 73.0387 200.256C73.0387 200.325 73.0387 200.518 73.5222 200.753C79.187 203.406 105.48 201.803 107.552 200.753C109.901 199.579 198.506 201.707 217.808 202.135C218.333 199.8 220.17 190.087 215.473 183.151C212.709 179.006 208.012 176.547 201.656 175.828C197.014 176.63 116.712 190.363 110.467 189.175C108.934 188.885 107.552 188.581 106.323 188.291C104.05 187.7 101.72 187.357 99.3728 187.268Z" fill="#231F20"/>
<path id="Vector_46" d="M211.991 130.51C211.991 130.51 199.28 134.393 183.722 148.803C183.722 148.803 200.053 158.475 201.615 175.124C201.615 175.124 217.172 187.047 215.1 202.618C215.1 202.618 253.882 211.696 268.21 196.774C282.538 181.852 283.408 149.19 283.408 149.19L211.991 130.51Z" fill="#233863"/>
<path id="Vector_47" d="M239.803 206.045C238.643 206.045 237.468 206.045 236.253 205.976C229.086 205.695 221.958 204.794 214.948 203.282C214.779 203.245 214.63 203.147 214.531 203.006C214.431 202.866 214.388 202.693 214.409 202.522C216.412 187.531 201.338 175.787 201.186 175.676C201.112 175.617 201.051 175.544 201.006 175.461C200.961 175.378 200.933 175.287 200.924 175.193C199.418 159.124 183.529 149.494 183.363 149.397C183.272 149.34 183.195 149.263 183.138 149.173C183.08 149.082 183.044 148.979 183.032 148.872C183.018 148.765 183.031 148.656 183.07 148.555C183.108 148.454 183.171 148.363 183.253 148.292C198.741 133.951 211.659 129.889 211.784 129.861C211.906 129.827 212.035 129.827 212.157 129.861L283.615 148.582C283.768 148.617 283.903 148.704 283.999 148.827C284.094 148.951 284.144 149.103 284.14 149.259C284.14 150.641 283.049 182.419 268.707 197.313C263.043 203.088 253.371 206.045 239.803 206.045ZM215.859 202.066C220.806 203.13 254.78 209.748 267.699 196.304C280.617 182.861 282.524 154.109 282.731 149.715L212.005 131.229C210.43 131.768 198.81 135.982 184.841 148.707C188.116 150.903 200.758 160.271 202.264 174.764C204.295 176.381 217.448 187.489 215.859 202.066Z" fill="#231F20"/>
<path id="Vector_48" d="M289.294 13.2776C276.859 -2.99816 255.14 4.37983 248.356 21.4293C245.592 28.1994 243.092 34.3201 238.284 39.9158C234.014 44.9173 227.41 49.2281 226.954 56.4955C226.636 61.4971 229.855 66.2499 234.083 68.9303C238.311 71.6107 243.437 72.5779 248.439 72.9924C259.605 73.9329 270.845 72.5208 281.432 68.8474C285.743 67.3553 290.8 64.8959 293.176 60.7372C296.092 55.6527 293.176 51.6321 292.195 46.3404C291.366 41.933 292.928 37.4979 294.005 33.1457C295.746 25.8644 293.743 19.1496 289.294 13.2776Z" fill="white"/>
<path id="Vector_49" d="M255.057 73.9734C252.818 73.9734 250.566 73.8766 248.342 73.6832C243.99 73.3102 238.394 72.5088 233.683 69.5383C228.971 66.5677 225.918 61.3313 226.222 56.4541C226.581 50.8031 230.491 46.9207 234.263 43.1765C235.506 41.9468 236.681 40.7724 237.731 39.5565C242.332 34.1958 244.846 28.3514 247.665 21.2636C251.381 11.9236 259.727 5.07066 268.915 3.79955C277.011 2.68041 284.43 5.92728 289.791 12.9322C294.751 19.4121 296.368 26.2789 294.627 33.353C294.447 34.0714 294.268 34.7346 294.074 35.5221C293.135 39.0592 292.168 42.7205 292.831 46.2437C293.104 47.6088 293.459 48.9561 293.895 50.2781C294.972 53.8289 295.995 57.1863 293.743 61.124C291.739 64.6058 287.664 67.4382 281.626 69.5383C273.077 72.4813 264.098 73.9801 255.057 73.9734ZM271.996 4.89105C271.029 4.89182 270.064 4.96108 269.108 5.0983C260.39 6.30033 252.528 12.8217 248.95 21.678C246.076 28.8764 243.506 34.8313 238.767 40.3579C237.689 41.6152 236.432 42.8587 235.23 44.0607C231.638 47.6254 227.921 51.3144 227.59 56.4955C227.313 60.8615 229.994 65.5039 234.415 68.3224C238.836 71.141 244.266 71.9285 248.452 72.2877C259.528 73.1938 270.67 71.7822 281.17 68.1428C286.89 66.1532 290.717 63.5281 292.541 60.3365C294.503 56.91 293.618 53.9809 292.541 50.5821C292.09 49.2236 291.721 47.8395 291.435 46.4371C290.717 42.61 291.726 38.7828 292.707 35.0938C292.886 34.3754 293.08 33.7122 293.259 32.9523C294.89 26.3066 293.342 19.8266 288.658 13.706C284.306 7.94449 278.448 4.89105 271.996 4.89105Z" fill="#231F20"/>
<path id="Vector_50" d="M294.019 61.1102C293.909 59.5628 239.555 36.6689 234.304 56.5922C223.445 98.1936 211.991 130.51 211.991 130.51C211.991 130.51 237.579 152.617 256.065 153.86C265.435 154.512 274.825 152.911 283.45 149.19C283.45 149.19 296.879 103.527 294.019 61.1102Z" fill="#AFC3FE"/>
<path id="Vector_51" d="M294.116 62.8235C294.116 62.8235 299.559 63.9979 299.256 77.4136C299.048 86.9194 293.812 140.734 290.302 144.783C286.793 148.831 244.335 161.749 241.489 164.554C238.643 167.359 230.146 180.305 227.811 179.269C225.476 178.232 233.337 156.61 237.22 154.8C241.102 152.99 283.449 126.89 283.449 126.89C283.449 126.89 295 77.7591 294.116 62.8235Z" fill="white"/>
<path id="Vector_52" d="M228.087 180.015C227.892 180.021 227.699 179.983 227.521 179.904C226.705 179.545 226.692 178.412 226.692 178.053C226.692 173.189 233.199 155.946 236.93 154.164C240.66 152.382 279.36 128.59 282.842 126.448C283.767 122.441 294.254 76.9439 293.425 62.8926C293.418 62.7852 293.438 62.6778 293.481 62.5792C293.524 62.4807 293.59 62.3939 293.674 62.3261C293.751 62.2516 293.847 62.1984 293.951 62.1717C294.055 62.1451 294.164 62.1459 294.268 62.1741C294.503 62.1741 300.25 63.5557 299.946 77.4551C299.767 85.3719 294.682 140.817 290.828 145.252C288.907 147.477 277.702 151.594 262.075 157.176C252.763 160.506 243.133 163.932 241.973 165.079C240.539 166.658 239.192 168.314 237.938 170.039C233.227 176.132 230.077 180.015 228.087 180.015ZM294.848 63.9564C295.124 80.025 284.582 125.053 284.113 127.015C284.072 127.192 283.963 127.346 283.809 127.443C282.082 128.507 241.392 153.584 237.51 155.394C235.285 156.43 230.975 166.005 228.985 173.106C227.603 177.845 228.17 178.633 228.17 178.633C229.303 178.882 234.401 172.264 236.847 169.1C238.135 167.322 239.519 165.616 240.992 163.988C242.29 162.703 249.668 160.036 261.592 155.781C273.516 151.525 287.94 146.372 289.777 144.258C293.038 140.486 298.33 87.403 298.551 77.3308C298.772 68.2395 296.202 65.0479 294.82 63.984L294.848 63.9564Z" fill="#231F20"/>
<path id="Vector_53" d="M275.574 54.2573L275.132 66.927C275.132 66.927 273.294 72.6608 264.88 70.3949C256.466 68.129 255.388 62.2708 255.388 62.2708L257.046 38.6861C257.046 38.6861 270.49 31.9851 268.998 18.3069C270.58 21.5134 273.112 24.1544 276.25 25.8702C279.387 27.5859 282.977 28.2931 286.531 27.8955C286.456 34.1446 285.994 40.3832 285.149 46.5753C283.947 53.0967 275.574 54.2573 275.574 54.2573Z" fill="white"/>
<path id="Vector_54" d="M268.569 71.6107C267.279 71.5932 265.997 71.4074 264.756 71.058C256.038 68.7092 254.808 62.6576 254.753 62.3951C254.746 62.3355 254.746 62.2752 254.753 62.2155L256.411 38.6308C256.424 38.512 256.466 38.3982 256.534 38.2995C256.601 38.2007 256.692 38.12 256.797 38.0643C256.922 37.9953 269.799 31.4048 268.376 18.3897C268.356 18.2265 268.396 18.0617 268.487 17.925C268.578 17.7882 268.715 17.6885 268.873 17.6436C269.033 17.6025 269.202 17.6188 269.351 17.6895C269.5 17.7601 269.619 17.8808 269.688 18.0305C271.195 21.1041 273.616 23.636 276.619 25.2786C279.623 26.9212 283.061 27.594 286.461 27.2046C286.559 27.1928 286.658 27.2027 286.751 27.2338C286.844 27.2649 286.929 27.3162 287 27.3842C287.07 27.4499 287.125 27.5292 287.163 27.617C287.201 27.7049 287.221 27.7997 287.221 27.8954C287.16 34.1865 286.699 40.4672 285.84 46.6996C284.762 52.6822 278.268 54.4368 276.279 54.8513L275.85 66.9546C275.857 67.0142 275.857 67.0745 275.85 67.1342C275.258 68.5488 274.237 69.7418 272.931 70.545C271.624 71.3482 270.099 71.7209 268.569 71.6107ZM256.134 62.2155C256.3 62.9201 257.696 67.7421 265.115 69.7178C272.3 71.6521 274.248 67.4658 274.51 66.7888L274.939 54.2434C274.941 54.0797 275.002 53.9223 275.111 53.8004C275.22 53.6785 275.37 53.6003 275.533 53.5802C275.616 53.5802 283.436 52.4058 284.513 46.4509C285.323 40.5478 285.762 34.5996 285.826 28.6415C282.723 28.8666 279.616 28.2745 276.813 26.9242C274.011 25.5739 271.611 23.5126 269.854 20.9457C269.536 31.9989 259.768 37.9814 257.765 39.1144L256.134 62.2155Z" fill="#231F20"/>
<path id="Vector_55" d="M261.067 38.0505C260.66 36.6114 259.774 35.3544 258.556 34.4875C257.337 33.6207 255.859 33.196 254.366 33.2839C250.677 33.7398 250.594 37.8986 251.672 40.6204C252 41.4453 252.488 42.1967 253.109 42.8312C253.73 43.4656 254.471 43.9704 255.288 44.3162C256.106 44.662 256.984 44.8419 257.871 44.8454C258.759 44.849 259.639 44.6762 260.459 44.337" fill="white"/>
<path id="Vector_56" d="M257.903 45.5943C256.91 45.5989 255.926 45.3965 255.015 45.0002C254.108 44.6106 253.289 44.043 252.606 43.331C251.922 42.6191 251.388 41.7772 251.036 40.8553C250.6 39.8627 250.381 38.7886 250.393 37.7046C250.405 36.6206 250.648 35.5516 251.105 34.5688C251.441 34.0108 251.904 33.5399 252.456 33.1942C253.008 32.8485 253.634 32.6378 254.283 32.5792C255.951 32.4614 257.608 32.9279 258.969 33.8985C260.33 34.8691 261.312 36.2834 261.744 37.8986C261.764 37.9866 261.767 38.0779 261.751 38.1669C261.735 38.2559 261.702 38.3409 261.653 38.4169C261.604 38.4928 261.541 38.5583 261.466 38.6092C261.391 38.6602 261.307 38.6958 261.219 38.7138C261.13 38.7341 261.038 38.7367 260.948 38.7213C260.858 38.7059 260.772 38.6728 260.695 38.624C260.618 38.5752 260.551 38.5116 260.499 38.4369C260.446 38.3622 260.409 38.2778 260.39 38.1887C260.017 36.9189 259.229 35.8108 258.152 35.0418C257.075 34.2728 255.771 33.8873 254.449 33.9471C254.005 33.9864 253.577 34.1326 253.201 34.3732C252.826 34.6138 252.515 34.9416 252.293 35.3287C251.941 36.1276 251.759 36.991 251.759 37.864C251.759 38.737 251.941 39.6005 252.293 40.3994C252.59 41.1387 253.029 41.8121 253.587 42.3808C254.144 42.9495 254.809 43.4023 255.542 43.7131C256.275 44.0239 257.063 44.1866 257.859 44.1917C258.656 44.1968 259.445 44.0443 260.183 43.7429C260.347 43.6929 260.524 43.7059 260.679 43.7793C260.834 43.8527 260.957 43.9813 261.022 44.1401C261.088 44.2988 261.092 44.4763 261.034 44.6379C260.976 44.7995 260.859 44.9336 260.708 45.0141C259.819 45.3885 258.867 45.5856 257.903 45.5943Z" fill="#231F20"/>
<path id="Vector_57" d="M275.629 33.7812C275.629 33.7812 280.12 40.3579 279.083 41.5185C278.047 42.6791 275.077 41.9468 275.077 41.9468" fill="white"/>
<path id="Vector_58" d="M276.97 42.8725C276.276 42.8651 275.586 42.7817 274.911 42.6238C274.735 42.5751 274.585 42.46 274.492 42.3028C274.399 42.1456 274.371 41.9585 274.414 41.781C274.435 41.6935 274.473 41.611 274.526 41.5384C274.579 41.4658 274.646 41.4046 274.724 41.3582C274.801 41.3119 274.886 41.2815 274.976 41.2686C275.065 41.2558 275.155 41.2609 275.243 41.2836C276.085 41.477 278.006 41.6981 278.572 41.0625C278.766 40.4546 277.191 37.2216 275.063 34.1543C274.985 34.0044 274.964 33.831 275.005 33.667C275.046 33.5031 275.146 33.3598 275.286 33.2645C275.426 33.1691 275.595 33.1283 275.763 33.1497C275.931 33.1711 276.085 33.2532 276.196 33.3806C278.393 36.586 280.755 40.6757 279.595 41.9744C279.241 42.2947 278.826 42.5395 278.375 42.6939C277.923 42.8483 277.445 42.9091 276.97 42.8725Z" fill="#231F20"/>
<path id="Vector_59" d="M271.968 32.6483C272.54 32.6483 273.004 31.5782 273.004 30.2581C273.004 28.938 272.54 27.8678 271.968 27.8678C271.396 27.8678 270.932 28.938 270.932 30.2581C270.932 31.5782 271.396 32.6483 271.968 32.6483Z" fill="#231F20"/>
<path id="Vector_60" d="M282.399 34.4445C282.972 34.4445 283.436 33.3743 283.436 32.0542C283.436 30.7341 282.972 29.664 282.399 29.664C281.827 29.664 281.363 30.7341 281.363 32.0542C281.363 33.3743 281.827 34.4445 282.399 34.4445Z" fill="#231F20"/>
<path id="Vector_61" d="M275.574 54.2573C271.818 54.4841 268.105 53.3511 265.115 51.0657C265.115 51.0657 266.966 60.0464 275.339 61.1102L275.574 54.2573Z" fill="#231F20"/>
<path id="Vector_62" d="M275.339 61.801H275.256C266.497 60.6819 264.466 51.3005 264.438 51.2038C264.412 51.0674 264.427 50.9265 264.482 50.7987C264.536 50.6709 264.626 50.5619 264.742 50.4854C264.856 50.4081 264.991 50.3669 265.129 50.3669C265.267 50.3669 265.401 50.4081 265.516 50.4854C268.37 52.6546 271.896 53.7502 275.477 53.5802C275.576 53.5623 275.678 53.568 275.774 53.5968C275.87 53.6256 275.958 53.6768 276.03 53.7461C276.107 53.8124 276.168 53.8954 276.209 53.9887C276.25 54.0819 276.269 54.1832 276.265 54.2849L276.03 61.1931C276.025 61.2887 276.001 61.3823 275.958 61.4679C275.915 61.5536 275.855 61.6294 275.781 61.6905C275.652 61.7796 275.495 61.8188 275.339 61.801ZM266.317 52.6545C266.931 54.5315 268.016 56.2201 269.467 57.5599C270.918 58.8996 272.687 59.8459 274.607 60.3089L274.787 55.0033C271.804 54.9925 268.879 54.1814 266.317 52.6545Z" fill="#231F20"/>
<path id="Vector_63" d="M275.367 48.4267C273.834 48.451 272.337 47.9649 271.111 47.0451C267.367 44.2818 267.505 38.1611 267.519 37.8986C267.521 37.8084 267.541 37.7196 267.577 37.6372C267.614 37.5548 267.666 37.4806 267.732 37.4188C267.798 37.357 267.875 37.309 267.959 37.2775C268.044 37.246 268.134 37.2317 268.224 37.2354C268.406 37.2425 268.578 37.3199 268.704 37.4513C268.83 37.5827 268.901 37.7578 268.901 37.94C268.901 37.94 268.776 43.5909 271.94 45.9397C273.64 47.197 276.016 47.3214 279.014 46.3128C279.101 46.2826 279.194 46.2701 279.286 46.2761C279.377 46.2821 279.467 46.3064 279.55 46.3476C279.632 46.3888 279.705 46.446 279.765 46.516C279.825 46.5859 279.871 46.6672 279.899 46.7549C279.952 46.929 279.935 47.1169 279.853 47.2791C279.77 47.4414 279.628 47.5654 279.457 47.6253C278.146 48.112 276.764 48.3827 275.367 48.4267Z" fill="#231F20"/>
<path id="Vector_64" d="M228.847 65.6835C226.802 74.526 216.937 123.16 219.3 128.175C221.662 133.191 284.679 132.458 287.581 132.458C290.482 132.458 299.463 144.133 302.364 140.237C305.266 136.341 294.641 124.293 292.693 123.906C290.745 123.519 243.934 113.143 243.934 113.143C243.934 113.143 253.827 72.1634 251.133 61.1102C248.729 51.5631 233.448 45.7463 228.847 65.6835Z" fill="white"/>
<path id="Vector_65" d="M300.789 141.674C298.454 141.674 295.415 139.076 292.499 136.548C290.62 134.932 288.465 133.094 287.608 133.094H286.531C256.701 133.287 220.723 132.652 218.733 128.41C216.122 122.884 227.023 70.8784 228.225 65.4486C231.113 53.0138 237.772 51.6321 240.508 51.6321C243.129 51.7745 245.636 52.7549 247.658 54.4289C249.68 56.1029 251.111 58.382 251.741 60.9306C254.297 71.362 246.048 107.022 244.722 112.604C250.511 113.889 290.938 122.856 292.776 123.215C294.613 123.574 301.066 130.676 302.931 135.65C303.774 137.833 303.774 139.505 302.931 140.638C302.725 140.935 302.456 141.183 302.143 141.365C301.83 141.546 301.481 141.657 301.121 141.688L300.789 141.674ZM287.581 131.712C288.962 131.712 290.634 133.094 293.37 135.498C296.105 137.902 299.186 140.486 300.955 140.279C301.127 140.264 301.294 140.211 301.443 140.122C301.591 140.034 301.717 139.912 301.812 139.767C302.475 138.897 302.116 137.363 301.687 136.23C299.794 131.173 293.591 124.763 292.513 124.528C290.524 124.141 245.648 114.193 243.741 113.765C243.56 113.724 243.402 113.615 243.299 113.461C243.204 113.298 243.175 113.106 243.216 112.922C243.313 112.521 253.04 71.9837 250.401 61.2207C249.254 56.5646 244.943 52.9309 240.453 52.9309C235.382 52.9309 231.389 57.6285 229.51 65.7387C226.982 76.6814 217.766 123.188 219.935 127.788C220.875 129.792 238.85 131.933 286.462 131.685L287.581 131.712Z" fill="#231F20"/>
<path id="Vector_66" d="M355.406 89.282C355.406 89.282 354.881 138.814 349.699 142.71C347.503 144.354 343.095 143.291 340.663 142.931C335.798 142.117 330.978 141.047 326.225 139.726C322.909 138.855 319.649 137.805 316.36 136.797C314.716 136.286 313.072 135.802 311.414 135.346C310.447 135.084 307.573 133.854 306.661 134.241C305.749 134.628 304.976 136.7 304.409 137.349C303.526 138.384 302.524 139.311 301.425 140.113C299.348 141.641 296.962 142.698 294.434 143.208C293.742 143.326 293.034 143.304 292.351 143.145C291.668 142.986 291.023 142.693 290.454 142.282C290.081 142.033 287.691 140.113 288.092 139.519C289.943 136.368 295.124 132.721 297.86 130.317C297.155 129.446 295.553 126.379 294.848 125.509C298.91 123.782 303.055 124.127 307.463 124.486C310.861 124.735 314.26 125.067 317.645 125.371C322.886 125.859 328.123 126.365 333.355 126.89L333.617 87.7207" fill="white"/>
<path id="Vector_67" d="M346.176 144.299C344.64 144.251 343.11 144.075 341.603 143.774L340.567 143.608C335.678 142.798 330.835 141.728 326.059 140.403C323.476 139.726 320.892 138.925 318.405 138.151L316.167 137.46C314.518 136.953 312.874 136.493 311.234 136.078C310.986 136.078 310.599 135.885 310.171 135.733C309.145 135.29 308.052 135.024 306.937 134.945C306.469 135.439 306.074 135.998 305.763 136.603C305.518 137.05 305.236 137.475 304.92 137.874C302.228 140.977 298.584 143.1 294.558 143.912C293.781 144.047 292.985 144.027 292.217 143.851C291.448 143.675 290.722 143.349 290.081 142.89C290.081 142.89 286.724 140.555 287.498 139.242C288.948 136.755 292.32 134.033 295.014 131.837L296.934 130.275C296.589 129.75 296.188 129.06 295.76 128.341C295.321 127.54 294.837 126.765 294.309 126.02C294.239 125.937 294.19 125.839 294.166 125.733C294.142 125.627 294.144 125.517 294.171 125.412C294.2 125.31 294.251 125.215 294.321 125.134C294.39 125.053 294.475 124.987 294.572 124.942C298.592 123.229 302.613 123.561 306.868 123.823H307.518C310.433 124.03 313.376 124.293 316.236 124.569L317.714 124.707C322.702 125.163 327.69 125.647 332.678 126.089L332.926 87.6931C332.926 87.5099 332.999 87.3341 333.129 87.2046C333.258 87.075 333.434 87.0023 333.617 87.0023C333.709 87.0022 333.8 87.0206 333.885 87.0561C333.969 87.0917 334.046 87.1438 334.111 87.2095C334.175 87.2751 334.225 87.3529 334.259 87.4383C334.293 87.5237 334.31 87.615 334.308 87.7069L334.045 126.863C334.044 126.958 334.024 127.053 333.986 127.141C333.948 127.228 333.893 127.308 333.824 127.374C333.751 127.437 333.665 127.485 333.572 127.513C333.479 127.542 333.382 127.551 333.285 127.54C328.063 127.024 322.831 126.522 317.59 126.034L316.112 125.896C313.265 125.633 310.323 125.357 307.421 125.149H306.772C302.972 124.873 299.38 124.611 295.912 125.854C296.216 126.338 296.575 126.946 296.948 127.581C297.368 128.374 297.829 129.144 298.33 129.889C298.442 130.027 298.496 130.204 298.48 130.382C298.465 130.56 298.381 130.724 298.247 130.842C297.556 131.45 296.727 132.127 295.815 132.859C293.273 134.932 290.109 137.488 288.727 139.698C289.312 140.445 289.995 141.11 290.758 141.674C291.252 142.036 291.813 142.296 292.409 142.438C293.004 142.58 293.622 142.603 294.226 142.503C297.951 141.743 301.321 139.776 303.815 136.907C304.07 136.569 304.301 136.214 304.506 135.843C305.21 134.669 305.708 133.868 306.33 133.605C307.186 133.26 308.692 133.716 310.557 134.379L311.525 134.697C313.196 135.139 314.841 135.636 316.498 136.147L318.751 136.838C321.224 137.612 323.794 138.413 326.336 139.076C331.064 140.396 335.861 141.457 340.705 142.254L341.769 142.434C344.076 142.821 347.544 143.415 349.216 142.171C352.822 139.408 354.438 109.012 354.646 89.282C354.646 89.1919 354.664 89.1027 354.699 89.0197C354.733 88.9366 354.785 88.8614 354.849 88.7983C354.913 88.7353 354.989 88.6857 355.073 88.6525C355.157 88.6193 355.246 88.6031 355.337 88.605C355.52 88.605 355.696 88.6778 355.825 88.8073C355.955 88.9369 356.027 89.1126 356.027 89.2958C356.027 94.4079 355.35 139.284 350.045 143.277C348.892 144.009 347.541 144.367 346.176 144.299Z" fill="#231F20"/>
<path id="Vector_68" d="M231.721 72.5917C231.973 72.5684 232.228 72.5684 232.481 72.5917C232.77 72.6233 233.039 72.7553 233.241 72.9647C233.335 73.084 233.403 73.2223 233.438 73.3703C233.474 73.5182 233.477 73.6721 233.448 73.8214C233.394 74.1364 233.278 74.4377 233.107 74.7079C232.936 74.9782 232.714 75.2122 232.453 75.3964C231.926 75.7613 231.355 76.0584 230.754 76.2807L224.757 78.7677C226.704 78.1554 228.727 77.8205 230.767 77.7729C231.395 77.738 232.019 77.8868 232.564 78.2012C236.708 80.9645 227.23 84.1561 225.655 84.4186C227.258 84.1699 230.615 82.0698 231.817 84.2113C231.97 84.5456 232.025 84.9163 231.976 85.2806C231.928 85.6448 231.777 85.9879 231.541 86.27C231.068 86.8514 230.474 87.3228 229.8 87.6516C226.571 89.4594 223.181 90.9626 219.673 92.142C214.754 93.8 216.26 82.2632 216.633 79.9144C216.999 77.7351 217.824 75.6585 219.053 73.8221C220.282 71.9856 221.887 70.4312 223.762 69.2619C225.646 68.0159 227.846 67.3351 230.104 67.3C233.365 67.5211 231.721 70.3811 230.007 71.5969C228.416 72.7197 226.733 73.7086 224.978 74.5536C227.079 73.4726 229.368 72.8065 231.721 72.5917Z" fill="white"/>
<path id="Vector_69" d="M218.719 93.0538C218.119 93.054 217.537 92.8438 217.075 92.4597C214.312 90.1524 215.694 81.5586 215.901 79.8591C216.281 77.5827 217.142 75.4133 218.426 73.4955C219.71 71.5777 221.388 69.9555 223.348 68.7369C225.354 67.4245 227.693 66.7105 230.09 66.6782C231.79 66.7888 232.37 67.5487 232.536 68.1704C232.895 69.4415 231.845 71.0442 230.602 72.0252C230.971 71.9637 231.346 71.936 231.721 71.9423C232.027 71.9399 232.332 71.9677 232.633 72.0252C233.068 72.0948 233.467 72.309 233.766 72.6331C233.922 72.8238 234.036 73.0456 234.101 73.2838C234.165 73.522 234.178 73.7712 234.139 74.0148C234.071 74.4203 233.924 74.8085 233.706 75.157C233.487 75.5056 233.203 75.8076 232.867 76.0458C232.298 76.4551 231.675 76.7851 231.016 77.0267L230.615 77.1925H230.781C231.538 77.1633 232.287 77.3554 232.937 77.7452C233.39 77.9628 233.76 78.3215 233.991 78.7675C234.223 79.2134 234.304 79.7226 234.221 80.2183C233.699 81.4665 232.706 82.459 231.458 82.9816C231.84 83.2102 232.151 83.5402 232.356 83.935C232.567 84.3791 232.65 84.8736 232.593 85.3622C232.537 85.8507 232.345 86.3137 232.038 86.6983C231.496 87.335 230.828 87.8525 230.077 88.2181C226.805 90.0329 223.379 91.5541 219.839 92.7637C219.484 92.9214 219.106 93.0194 218.719 93.0538ZM229.634 68.0322C227.667 68.193 225.77 68.8335 224.108 69.8975C222.318 71.019 220.786 72.5079 219.614 74.2657C218.442 76.0235 217.657 78.0101 217.31 80.094C216.688 83.8659 216.357 90.0004 218.015 91.4097C218.212 91.5526 218.444 91.6407 218.687 91.6649C218.93 91.6892 219.174 91.6488 219.396 91.5479C222.865 90.3811 226.218 88.8965 229.413 87.1128C229.992 86.8363 230.509 86.4463 230.933 85.966C231.102 85.7832 231.214 85.5553 231.256 85.31C231.297 85.0648 231.267 84.8127 231.168 84.5844C230.767 83.8659 229.925 83.8797 228.833 84.1699C227.742 84.46 226.954 84.8192 226.36 84.985L225.711 85.1508C225.527 85.1783 225.341 85.1319 225.192 85.0218C225.043 84.9116 224.944 84.7468 224.916 84.5636C224.889 84.3804 224.935 84.1938 225.045 84.0448C225.155 83.8958 225.32 83.7967 225.503 83.7692C225.974 83.6621 226.436 83.5189 226.885 83.3409C227.355 83.1613 227.894 82.9816 228.446 82.8297C230.45 82.0283 232.591 80.8539 232.867 79.8453C232.867 79.721 232.978 79.3479 232.163 78.7953C231.738 78.571 231.261 78.4615 230.781 78.4775C228.802 78.5365 226.84 78.8665 224.951 79.4584C224.787 79.4875 224.618 79.4566 224.476 79.3714C224.333 79.2862 224.226 79.1524 224.174 78.9946C224.122 78.8368 224.128 78.6655 224.192 78.5122C224.256 78.3588 224.374 78.2337 224.522 78.1597L230.519 75.6727C231.065 75.47 231.585 75.2009 232.066 74.8714C232.443 74.6108 232.705 74.215 232.798 73.7661C232.828 73.6576 232.828 73.543 232.798 73.4345C232.684 73.3556 232.55 73.308 232.411 73.2963C232.196 73.274 231.978 73.274 231.762 73.2963C229.615 73.5055 227.523 74.0999 225.586 75.051L225.296 75.203C225.133 75.2796 224.946 75.2893 224.775 75.2299C224.605 75.1705 224.465 75.0468 224.384 74.8852C224.306 74.7215 224.294 74.5338 224.35 74.3613C224.407 74.1889 224.528 74.0449 224.688 73.9595L224.992 73.8213C226.609 73.0217 228.161 72.0978 229.634 71.058C230.643 70.3396 231.458 69.1099 231.292 68.5296C231.127 67.9493 230.394 68.0461 230.077 68.0184L229.634 68.0322Z" fill="#231F20"/>
<path id="Vector_70" d="M201.366 47.7221L188.765 37.719C188.434 17.2292 169.091 0.746124 145.354 0.746124C121.617 0.746124 101.943 17.5331 101.943 38.2993C101.943 59.0654 121.382 75.9077 145.354 75.9077C165.015 75.9077 181.608 64.6058 186.955 49.0899L201.366 47.7221Z" fill="white"/>
<path id="Vector_71" d="M145.354 76.5985C121.037 76.5985 101.252 59.4246 101.252 38.2993C101.252 17.1739 121.037 3.05176e-05 145.354 3.05176e-05C169.187 3.05176e-05 188.89 16.7456 189.442 37.3874L201.794 47.1971C201.903 47.2809 201.984 47.3958 202.026 47.5266C202.068 47.6574 202.069 47.7979 202.029 47.9293C201.99 48.0626 201.91 48.1805 201.801 48.267C201.693 48.3535 201.56 48.4044 201.421 48.4129L187.467 49.7946C181.76 65.573 164.531 76.5985 145.354 76.5985ZM145.354 1.38168C121.866 1.38168 102.634 17.9614 102.634 38.2993C102.634 58.6371 121.797 75.2168 145.354 75.2168C164.117 75.2168 180.945 64.3847 186.306 48.855C186.352 48.7309 186.432 48.6222 186.537 48.5416C186.643 48.461 186.768 48.4116 186.9 48.3991L199.584 47.1971L188.337 38.2716C188.255 38.2109 188.189 38.1317 188.143 38.0405C188.097 37.9492 188.074 37.8486 188.075 37.7466C187.729 17.6989 168.566 1.38168 145.354 1.38168Z" fill="#231F20"/>
<path id="heart" d="M146.072 60.1569C146.072 60.1569 124.187 46.1746 124.657 32.6483C125.127 19.122 136.774 20.2964 140.739 22.3965C144.705 24.4966 147.274 29.6225 147.274 29.6225C148.079 27.3682 149.53 25.4014 151.447 23.9685C153.364 22.5356 155.662 21.7004 158.051 21.5675C166.438 21.0977 170.03 28.8626 163.979 42.1402C160.337 50.0803 153.99 56.4664 146.072 60.1569Z" fill="#FCECDC"/>
</g>
</svg>
