<svg width="391" height="346" viewBox="0 0 391 346" fill="none" xmlns="http://www.w3.org/2000/svg">
<path d="M195.334 58.9597C195.334 58.9597 171.938 43.9973 172.469 29.5223C173.001 15.0473 185.423 16.229 189.662 18.5479C193.901 20.8669 196.634 26.2728 196.634 26.2728C197.501 23.8744 199.054 21.7838 201.1 20.2607C203.145 18.7376 205.593 17.8493 208.14 17.706C217.105 17.2038 220.946 25.5048 214.461 39.7139C210.574 48.1971 203.793 55.0195 195.334 58.9597Z" fill="#FCECDC"/>
<path d="M187.373 152.249C187.373 152.249 194.507 158.069 197.712 159.635C200.917 161.2 207.239 158.645 208.184 161.525C209.129 164.405 209.897 169.856 200.385 172.352C190.873 174.848 186.737 166.99 177.048 162.367" fill="white"/>
<path d="M196.899 173.534C192.276 173.534 188.835 171.023 184.98 168.201C182.415 166.21 179.665 164.469 176.767 163.002C176.679 162.961 176.6 162.902 176.534 162.83C176.469 162.757 176.418 162.673 176.385 162.581C176.352 162.489 176.338 162.391 176.343 162.294C176.347 162.196 176.371 162.101 176.413 162.013C176.455 161.924 176.513 161.845 176.586 161.78C176.658 161.714 176.742 161.663 176.834 161.63C176.926 161.597 177.024 161.583 177.121 161.588C177.219 161.593 177.314 161.616 177.403 161.658C180.381 163.171 183.209 164.961 185.851 167.005C190.548 170.447 194.285 173.164 200.223 171.599C203.871 170.653 206.264 169.161 207.342 167.167C207.757 166.318 207.987 165.391 208.018 164.447C208.048 163.502 207.879 162.562 207.519 161.688C207.18 160.669 205.511 160.669 203 160.787C201.126 161.037 199.22 160.85 197.431 160.24C194.152 158.689 187.21 153.032 186.915 152.781C186.839 152.721 186.776 152.646 186.729 152.561C186.683 152.476 186.654 152.382 186.644 152.286C186.635 152.19 186.644 152.092 186.673 152C186.702 151.907 186.749 151.821 186.811 151.747C186.872 151.671 186.946 151.608 187.031 151.562C187.116 151.515 187.21 151.486 187.306 151.477C187.403 151.467 187.5 151.477 187.593 151.506C187.685 151.534 187.771 151.581 187.845 151.644C187.919 151.644 194.95 157.419 198.066 158.896C199.635 159.395 201.295 159.536 202.926 159.31C205.525 159.191 208.214 159.059 208.923 161.23C209.343 162.296 209.535 163.438 209.487 164.583C209.439 165.728 209.151 166.85 208.642 167.876C207.357 170.225 204.654 171.938 200.607 173.002C199.4 173.341 198.153 173.52 196.899 173.534Z" fill="#231F20"/>
<path d="M35.1047 164.863C35.1047 165.72 20.5559 187.876 19.6254 186.443C18.6948 185.01 21.516 177.226 21.516 177.226C21.516 177.226 7.72045 188.732 1.96 185.291C-3.80045 181.849 12.2993 174.375 16.9224 164.863C21.5455 155.351 25.7846 152.205 25.7846 152.205" fill="white"/>
<path d="M19.6992 187.24C19.5503 187.243 19.4032 187.207 19.2715 187.138C19.1399 187.068 19.0279 186.966 18.946 186.842C18.1927 185.66 19.1084 182.1 19.9947 179.368C15.8589 182.455 6.37637 188.806 1.576 185.926C1.15885 185.71 0.799209 185.398 0.526918 185.015C0.254627 184.632 0.0775304 184.19 0.0103284 183.725C-0.196457 181.465 2.72808 178.866 6.42068 175.587C10.1133 172.308 14.2785 168.63 16.2577 164.538C20.8809 154.967 25.2234 151.747 25.4006 151.614C25.4784 151.555 25.5673 151.512 25.6621 151.488C25.757 151.464 25.8557 151.459 25.9523 151.474C26.049 151.49 26.1415 151.524 26.2244 151.576C26.3073 151.628 26.3788 151.696 26.4345 151.777C26.5459 151.934 26.5912 152.129 26.5609 152.319C26.5305 152.51 26.4269 152.681 26.2721 152.796C26.2721 152.796 22.033 155.986 17.5871 165.188C15.4749 169.531 11.1915 173.341 7.41029 176.694C4.27897 179.456 1.33967 182.071 1.50214 183.592C1.50214 183.74 1.50213 184.168 2.37359 184.656C6.71608 187.255 17.3508 179.767 21.0729 176.665C21.202 176.565 21.3604 176.512 21.5234 176.512C21.6864 176.512 21.8448 176.565 21.9739 176.665C22.1081 176.757 22.2073 176.892 22.2555 177.047C22.3038 177.202 22.2982 177.37 22.2398 177.522C21.2369 180.045 20.533 182.677 20.1424 185.365C23.1703 182.411 33.7016 166.488 34.3515 164.686C34.3602 164.589 34.3879 164.495 34.4331 164.408C34.4783 164.322 34.54 164.246 34.6148 164.183C34.6895 164.121 34.7758 164.074 34.8688 164.045C34.9617 164.016 35.0595 164.005 35.1565 164.014C35.2534 164.023 35.3478 164.05 35.434 164.096C35.5203 164.141 35.5968 164.203 35.6592 164.277C35.7216 164.352 35.7687 164.438 35.7977 164.531C35.8268 164.624 35.8372 164.722 35.8285 164.819C35.8285 166.104 22.3431 186.472 20.0242 187.152C19.9222 187.201 19.8121 187.231 19.6992 187.24Z" fill="#231F20"/>
<path d="M97.9232 199.219C97.9232 199.219 79.6375 257.149 45.444 308.151L28.9012 299.421L64.9705 221.138L97.9232 199.219Z" fill="white"/>
<path d="M45.444 308.889C45.325 308.89 45.2078 308.859 45.1043 308.801L28.5615 300.086C28.3976 299.995 28.2735 299.846 28.2134 299.669C28.1533 299.491 28.1616 299.298 28.2366 299.126L64.2911 220.843C64.3588 220.723 64.4491 220.618 64.5569 220.533L97.5687 198.614C97.6938 198.525 97.8435 198.477 97.9971 198.477C98.1506 198.477 98.3003 198.525 98.4254 198.614C98.5495 198.704 98.641 198.832 98.6862 198.978C98.7315 199.124 98.7281 199.282 98.6765 199.426C98.4992 200.002 79.9772 258.05 46.0644 308.535C45.9984 308.641 45.9072 308.728 45.7989 308.79C45.6907 308.852 45.5687 308.886 45.444 308.889ZM29.8761 299.097L45.1339 307.205C75.1621 262.333 92.9899 211.671 96.5496 201.036L65.5318 221.714L29.8761 299.097Z" fill="#231F20"/>
<path d="M122.575 251.949C122.575 251.949 120.67 304.148 129.709 327.589L145.174 325.875C145.174 325.875 153.268 240.31 143.933 230.798C132.767 219.396 110.434 251.639 122.575 251.949Z" fill="white"/>
<path d="M129.709 328.327C129.562 328.325 129.418 328.279 129.297 328.195C129.176 328.111 129.083 327.992 129.03 327.854C120.596 306.024 121.644 258.951 121.822 252.629C121.016 252.569 120.251 252.248 119.644 251.715C119.036 251.182 118.619 250.466 118.454 249.675C117.169 244.446 124.362 233.649 132.013 229.395C136.887 226.692 141.304 226.973 144.465 230.207C153.918 239.853 146.237 322.36 145.942 325.86C145.929 326.03 145.856 326.189 145.738 326.311C145.619 326.432 145.461 326.508 145.292 326.525L129.827 328.239L129.709 328.327ZM138.291 229.1C136.331 229.182 134.422 229.75 132.737 230.754C125.352 234.89 118.868 245.229 119.887 249.394C120.182 250.576 121.068 251.167 122.605 251.211C122.702 251.213 122.799 251.234 122.888 251.275C122.977 251.316 123.056 251.374 123.121 251.447C123.19 251.517 123.242 251.6 123.275 251.692C123.309 251.784 123.322 251.882 123.313 251.979C123.313 252.496 121.541 303.513 130.196 326.791L144.494 325.211C147.271 295.552 150.55 238.597 143.416 231.315C142.762 230.611 141.968 230.051 141.086 229.669C140.204 229.288 139.252 229.094 138.291 229.1Z" fill="#231F20"/>
<path d="M125.514 319.509L127.287 343.142L142.485 341.665L141.939 339.154C143.646 339.237 145.347 339.414 147.035 339.686C150.122 340.173 171.169 341.074 171.169 337.189C171.169 333.305 152.943 328.327 150.491 326.643C148.039 324.959 151.17 315.433 150.698 316.023C150.225 316.614 125.514 319.509 125.514 319.509Z" fill="#233863"/>
<path d="M127.287 343.939C127.113 343.942 126.944 343.878 126.814 343.762C126.739 343.7 126.677 343.624 126.631 343.538C126.585 343.451 126.557 343.357 126.548 343.26L124.791 319.627C124.778 319.437 124.837 319.248 124.958 319.1C125.079 318.952 125.251 318.856 125.44 318.83C134.303 317.811 148.866 316.009 150.269 315.521C150.378 315.446 150.504 315.399 150.635 315.384C150.766 315.368 150.899 315.385 151.023 315.433C151.599 315.713 151.525 316.097 151.2 317.486C150.018 322.567 149.915 325.491 150.875 326.141C152.725 327.059 154.641 327.839 156.606 328.475C165.276 331.665 171.908 334.383 171.908 337.337C171.897 337.625 171.822 337.906 171.69 338.162C171.557 338.417 171.369 338.64 171.14 338.814C167.521 341.916 148.984 340.867 146.917 340.527C145.144 340.262 143.726 340.129 142.869 340.055L143.209 341.635C143.233 341.735 143.233 341.839 143.21 341.939C143.187 342.039 143.141 342.132 143.076 342.211C143.017 342.296 142.94 342.368 142.851 342.422C142.762 342.475 142.662 342.509 142.559 342.521L127.361 343.998L127.287 343.939ZM126.312 320.159L127.966 342.403L141.599 341.059L141.215 339.346C141.194 339.237 141.197 339.124 141.226 339.017C141.254 338.91 141.306 338.81 141.378 338.725C141.449 338.638 141.539 338.569 141.642 338.523C141.744 338.477 141.856 338.455 141.968 338.46C143.706 338.538 145.437 338.721 147.153 339.006C150.107 339.479 167.3 340.099 170.18 337.632C170.431 337.411 170.431 337.278 170.431 337.234C170.431 335.077 161.111 331.636 156.089 329.848C154.005 329.178 151.98 328.338 150.033 327.337C148.039 325.964 148.733 321.636 149.767 317.146C147.537 317.545 141.747 318.372 126.312 320.159Z" fill="#231F20"/>
<path d="M48.531 306.821C47.8664 306.925 27.7196 299.82 27.7196 299.82L19.5515 323.261C19.5515 323.261 29.0784 327.574 30.0976 326.85C30.7268 326.432 31.2359 325.856 31.5746 325.181C32.3924 326.717 33.7263 327.915 35.3411 328.563C37.7191 329.228 52.711 333.822 53.8336 331.813C54.9561 329.804 44.2328 322.478 44.2919 317.633C44.351 312.789 48.531 306.821 48.531 306.821Z" fill="#233863"/>
<path d="M51.9873 333.054C49.5206 333.054 44.8384 332.108 35.9319 329.509L35.1195 329.272C33.6674 328.758 32.4125 327.803 31.5303 326.54C31.2393 326.885 30.9069 327.192 30.5407 327.456C30.201 327.692 29.1671 328.416 19.2709 323.94C19.104 323.863 18.9714 323.727 18.8979 323.558C18.8244 323.389 18.8153 323.2 18.8721 323.025L27.0401 299.584C27.1091 299.398 27.2464 299.244 27.4242 299.156C27.6053 299.089 27.8043 299.089 27.9854 299.156C35.3706 301.755 47.3789 305.92 48.531 306.112C48.6551 306.11 48.7777 306.14 48.8866 306.199C48.9955 306.259 49.0868 306.346 49.1514 306.452C49.2308 306.573 49.2731 306.714 49.2731 306.858C49.2731 307.003 49.2308 307.144 49.1514 307.265C49.1514 307.265 45.0895 313.173 45.0304 317.604C45.0304 319.997 48.2208 323.379 50.8057 326.097C53.3905 328.815 55.2368 330.764 54.4835 332.138C54.1585 332.699 53.4791 333.054 51.9873 333.054ZM31.5451 324.457C31.6776 324.458 31.8075 324.495 31.9216 324.562C32.0357 324.629 32.13 324.726 32.195 324.841C32.925 326.183 34.1003 327.228 35.5183 327.795L36.3455 328.032C50.658 332.212 52.8587 331.621 53.1985 331.355C53.1985 330.794 51.1158 328.563 49.7127 327.072C46.7586 324.014 43.4943 320.543 43.5386 317.56C43.5386 313.616 46.1678 309.081 47.3494 307.22C45.4588 306.674 40.6732 305.123 28.1479 300.721L20.4378 322.877C24.411 324.649 28.9603 326.363 29.7579 326.215C30.209 325.871 30.5732 325.426 30.8213 324.915C30.8754 324.787 30.9655 324.676 31.0808 324.598C31.1961 324.519 31.3317 324.475 31.4712 324.472L31.5451 324.457Z" fill="#231F20"/>
<path d="M135.676 14.3383C123.727 -1.30351 102.842 5.80104 96.328 22.1371C93.5511 29.0939 91.7787 36.745 86.8158 42.3577C81.853 47.9705 74.9995 50.4519 68.5154 53.598C62.2459 56.6418 56.2727 60.2613 50.6727 64.4099C45.3702 68.3388 40.1858 73.0358 38.0884 79.2984C36.3945 85.1094 36.84 91.3351 39.3439 96.8457C46.729 114.659 71.0263 111.232 85.6047 106.373C94.3192 103.418 100.995 99.2237 108.159 93.8325C118.646 85.9304 128.675 80.9232 136.075 69.3284C139.221 64.3951 141.762 58.5165 140.506 52.8004C139.989 50.4962 138.896 48.3693 138.468 46.0356C137.67 41.7965 139.177 37.5278 140.196 33.3626C141.909 26.45 139.974 19.9954 135.676 14.3383Z" fill="white"/>
<path d="M63.8331 111.04C52.6815 111.04 42.874 107.303 38.7235 97.1706C36.1363 91.5004 35.675 85.0887 37.4237 79.1065C39.7131 72.3269 45.5031 67.4083 50.2887 63.8634C55.9176 59.6866 61.9259 56.047 68.2347 52.9924L71.366 51.5154C76.7868 48.9749 82.3847 46.3605 86.3137 41.9294C89.9915 37.7789 91.9264 32.3287 93.7875 27.0704C94.3931 25.3718 95.0134 23.6141 95.6929 21.9303C99.2673 12.9204 107.302 6.31803 116.165 5.10686C123.978 4.01385 131.127 7.14517 136.297 13.9691C141.067 20.2022 142.633 26.8193 140.964 33.658C140.787 34.3374 140.61 35.0316 140.418 35.7259C139.531 39.123 138.601 42.6384 139.221 46.0651C139.477 47.2467 139.823 48.4071 140.255 49.5362C140.667 50.6039 141.003 51.6997 141.259 52.8152C142.367 57.8076 140.89 63.3908 136.74 69.9045C130.979 78.9144 123.653 84.025 115.884 89.431C113.521 91.0705 111.084 92.7691 108.646 94.6006C101.394 100.066 94.7476 104.305 85.8853 107.259C78.7783 109.668 71.3367 110.944 63.8331 111.04ZM119.089 6.34757C118.16 6.34638 117.232 6.41054 116.312 6.53958C107.982 7.69167 100.405 13.9248 97.0074 22.4473C96.3428 24.1163 95.7224 25.8592 95.1316 27.5431C93.2114 32.9343 91.2322 38.5175 87.3624 42.8895C83.2414 47.5422 77.4958 50.2747 71.9421 52.83C70.8934 53.3174 69.8595 53.8048 68.8403 54.307C62.6116 57.3283 56.6778 60.9232 51.1158 65.0451C46.5075 68.457 40.9391 73.1983 38.7826 79.5791C37.1409 85.221 37.5812 91.265 40.0233 96.6094C46.537 112.296 67.7178 111.601 85.3684 105.723C94.0533 102.769 100.582 98.6625 107.716 93.3008C110.183 91.4397 112.634 89.7411 114.998 88.0869C122.634 82.7695 129.857 77.7476 135.455 68.974C139.384 62.8147 140.802 57.586 139.782 52.9924C139.533 51.938 139.212 50.9017 138.822 49.8907C138.37 48.694 138.009 47.4645 137.744 46.2128C137.05 42.5055 138.025 38.8276 138.955 35.2827C139.133 34.5885 139.325 33.9091 139.487 33.2297C141.053 26.8489 139.576 20.6453 135.056 14.7815C133.247 12.2169 130.858 10.116 128.084 8.65036C125.309 7.18468 122.227 6.39563 119.089 6.34757Z" fill="#231F20"/>
<path d="M141.451 57.9553C141.363 56.4782 97.3767 42.5055 82.946 55.9761C68.5154 69.4466 77.7911 143.83 77.7911 143.83C77.7911 143.83 99.09 150.506 116.091 145.174C133.091 139.842 135.292 133.521 135.292 133.521C140.933 108.754 143.007 83.3085 141.451 57.9553Z" fill="#AFC3FE"/>
<path d="M135.204 133.521L166.989 275.095C167.152 275.095 143.446 287.221 104.954 287.561C51.4703 288.048 28.8864 251.521 28.8864 251.521L76.1517 126.726C76.1517 126.726 116.017 145.174 135.204 133.521Z" fill="#233863"/>
<path d="M103.861 288.314C51.3226 288.314 28.4433 252.274 28.2218 251.905C28.1711 251.804 28.1447 251.693 28.1447 251.58C28.1447 251.467 28.1711 251.356 28.2218 251.255L75.487 126.475C75.5224 126.379 75.5775 126.291 75.6487 126.217C75.7199 126.144 75.8057 126.086 75.9006 126.047C75.9912 126.006 76.0894 125.986 76.1886 125.986C76.2878 125.986 76.3859 126.006 76.4766 126.047C76.8754 126.224 116.357 144.2 134.953 132.885C135.054 132.827 135.168 132.796 135.285 132.796C135.402 132.796 135.516 132.827 135.617 132.885C135.723 132.93 135.816 132.999 135.891 133.086C135.965 133.173 136.018 133.276 136.046 133.388L167.831 274.962C167.876 275.116 167.876 275.28 167.831 275.434C167.521 276.099 143.091 287.989 105.072 288.329L103.861 288.314ZM29.6693 251.388C34.5484 258.243 40.5391 264.234 47.3937 269.113C58.5454 277.31 77.5844 287 104.998 286.837C140.034 286.512 162.795 276.35 166.266 274.696L134.82 134.658C126.666 139.089 114.407 139.296 98.3515 135.204C90.8709 133.283 83.552 130.779 76.4618 127.716L29.6693 251.388Z" fill="#231F20"/>
<path d="M122.531 53.731L122.102 65.9018C122.102 65.9018 120.345 71.4111 112.265 69.2251C104.186 67.0391 103.122 61.4263 103.122 61.4263L104.732 38.7538C104.732 38.7538 117.642 32.3139 116.209 19.183C117.725 22.255 120.151 24.7859 123.155 26.4321C126.159 28.0783 129.598 28.7601 133.003 28.385C132.951 34.3929 132.522 40.3916 131.718 46.3458C130.581 52.6232 122.531 53.731 122.531 53.731Z" fill="white"/>
<path d="M115.751 70.4806C114.507 70.4637 113.271 70.285 112.073 69.9488C103.639 67.6742 102.443 61.8103 102.399 61.5592C102.391 61.4955 102.391 61.431 102.399 61.3672L104.009 38.7095C104.014 38.582 104.055 38.4584 104.125 38.3518C104.195 38.2452 104.293 38.1596 104.407 38.1039C104.54 38.03 116.859 31.7231 115.5 19.2569C115.475 19.1599 115.469 19.0589 115.483 18.9596C115.496 18.8604 115.53 18.7648 115.58 18.6784C115.631 18.592 115.699 18.5164 115.778 18.456C115.858 18.3956 115.949 18.3515 116.046 18.3263C116.143 18.3011 116.244 18.2952 116.344 18.3091C116.443 18.3229 116.538 18.3561 116.625 18.4069C116.711 18.4576 116.787 18.5249 116.847 18.6048C116.908 18.6848 116.952 18.7759 116.977 18.8728C118.41 21.8185 120.724 24.2455 123.598 25.8175C126.472 27.3895 129.764 28.0287 133.018 27.6464C133.227 27.6351 133.433 27.7037 133.594 27.8385C133.669 27.9115 133.728 27.9988 133.769 28.0952C133.809 28.1916 133.83 28.2951 133.83 28.3997C133.786 34.4477 133.352 40.4866 132.53 46.4787C131.496 52.2096 125.337 53.8639 123.328 54.3513L122.929 65.9313C122.937 65.9951 122.937 66.0595 122.929 66.1233C122.353 67.5195 121.346 68.6952 120.055 69.479C118.763 70.2628 117.256 70.6137 115.751 70.4806ZM103.935 61.3672C104.112 62.0614 105.412 66.6107 112.531 68.5161C119.325 70.3476 121.187 66.4187 121.393 65.754L121.807 53.7014C121.813 53.529 121.88 53.3643 121.996 53.237C122.113 53.1097 122.271 53.0282 122.442 53.0072C122.442 53.0072 129.975 51.8699 131.009 46.2128C131.782 40.5678 132.201 34.8799 132.264 29.1826C129.321 29.3875 126.374 28.8273 123.711 27.5565C121.047 26.2857 118.758 24.3475 117.066 21.9303C116.637 32.2696 107.45 38.0891 105.456 39.2117L103.935 61.3672Z" fill="#231F20"/>
<path d="M108.587 38.2073C108.199 36.8219 107.348 35.6109 106.177 34.7754C105.006 33.9398 103.584 33.5299 102.148 33.6137C98.6026 34.0716 98.5288 38.0448 99.5627 40.6739C99.8751 41.4682 100.342 42.1927 100.936 42.8054C101.53 43.4181 102.24 43.9068 103.024 44.2434C103.809 44.5799 104.652 44.7576 105.506 44.766C106.359 44.7745 107.206 44.6136 107.997 44.2927" fill="white"/>
<path d="M105.545 45.4743C104.305 45.4388 103.094 45.0966 102.019 44.4784C100.944 43.8602 100.039 42.9852 99.3849 41.9317C98.7309 40.8782 98.3481 39.679 98.2709 38.4414C98.1937 37.2037 98.4244 35.9663 98.9424 34.8396C99.2683 34.2893 99.7213 33.8251 100.264 33.4858C100.806 33.1466 101.421 32.9423 102.059 32.8899C103.678 32.7754 105.286 33.2269 106.609 34.1671C107.932 35.1074 108.887 36.4781 109.311 38.0448C109.354 38.2407 109.318 38.4456 109.21 38.6146C109.102 38.7836 108.931 38.9027 108.735 38.9458C108.539 38.9889 108.334 38.9524 108.165 38.8444C107.996 38.7363 107.877 38.5656 107.834 38.3698C107.484 37.1653 106.738 36.1139 105.717 35.385C104.696 34.6562 103.46 34.2923 102.207 34.3522C101.796 34.3807 101.398 34.5068 101.046 34.7201C100.694 34.9333 100.398 35.2275 100.183 35.5781C99.8503 36.3372 99.6786 37.157 99.6786 37.9857C99.6786 38.8145 99.8503 39.6343 100.183 40.3933C100.462 41.0947 100.878 41.7338 101.406 42.2738C101.934 42.8137 102.563 43.2437 103.258 43.5389C103.953 43.8342 104.699 43.9889 105.454 43.994C106.209 43.9992 106.958 43.8547 107.657 43.5689C107.746 43.5305 107.842 43.5103 107.939 43.5097C108.036 43.509 108.132 43.5278 108.221 43.565C108.311 43.6022 108.392 43.657 108.46 43.7262C108.528 43.7954 108.581 43.8775 108.617 43.9677C108.655 44.0568 108.676 44.1526 108.676 44.2496C108.677 44.3465 108.658 44.4427 108.621 44.5322C108.584 44.6218 108.529 44.7029 108.46 44.7709C108.39 44.8388 108.308 44.8922 108.218 44.9278C107.371 45.2836 106.463 45.4692 105.545 45.4743Z" fill="#231F20"/>
<path d="M122.575 34.0568C122.575 34.0568 126.903 40.3785 125.898 41.442C124.894 42.5055 122.058 41.8556 122.058 41.8556" fill="white"/>
<path d="M123.875 42.8156C123.203 42.8102 122.533 42.7259 121.881 42.5645C121.691 42.5189 121.527 42.4002 121.425 42.2341C121.322 42.0681 121.29 41.8683 121.334 41.6783C121.383 41.4875 121.505 41.3234 121.673 41.2213C121.842 41.1191 122.043 41.087 122.235 41.1318C123.21 41.3829 124.879 41.4863 125.352 40.9546C125.485 40.3785 123.875 37.2915 121.969 34.4261C121.86 34.2627 121.819 34.0632 121.855 33.87C121.891 33.6769 122.001 33.5054 122.161 33.3921C122.326 33.2866 122.524 33.2478 122.716 33.2834C122.908 33.3191 123.08 33.4266 123.195 33.5841C125.307 36.6859 127.626 40.6592 126.445 41.9442C126.098 42.256 125.691 42.4941 125.249 42.6439C124.807 42.7937 124.34 42.8522 123.875 42.8156Z" fill="#231F20"/>
<path d="M119.06 32.9638C119.606 32.9638 120.049 31.9322 120.049 30.6596C120.049 29.3871 119.606 28.3554 119.06 28.3554C118.513 28.3554 118.07 29.3871 118.07 30.6596C118.07 31.9322 118.513 32.9638 119.06 32.9638Z" fill="#231F20"/>
<path d="M129.089 34.6919C129.635 34.6919 130.078 33.6603 130.078 32.3877C130.078 31.1152 129.635 30.0836 129.089 30.0836C128.542 30.0836 128.099 31.1152 128.099 32.3877C128.099 33.6603 128.542 34.6919 129.089 34.6919Z" fill="#231F20"/>
<path d="M122.531 53.7309C118.922 53.9515 115.355 52.8604 112.487 50.6587C112.487 50.6587 114.259 59.2846 122.309 60.3185L122.531 53.7309Z" fill="#231F20"/>
<path d="M122.25 61.0571C113.787 59.9641 111.822 50.895 111.807 50.8064C111.774 50.662 111.786 50.511 111.842 50.3736C111.897 50.2363 111.993 50.1193 112.118 50.0384C112.24 49.9558 112.384 49.9117 112.531 49.9117C112.679 49.9117 112.823 49.9558 112.945 50.0384C115.675 52.1103 119.048 53.156 122.472 52.9924C122.577 52.9766 122.685 52.9843 122.787 53.015C122.889 53.0456 122.983 53.0984 123.062 53.1697C123.142 53.2426 123.206 53.3316 123.25 53.4309C123.293 53.5301 123.315 53.6374 123.313 53.7457L123.092 60.3333C123.087 60.4355 123.061 60.5356 123.015 60.6271C122.969 60.7187 122.905 60.7997 122.826 60.8651C122.75 60.9369 122.659 60.9912 122.559 61.0244C122.46 61.0575 122.354 61.0687 122.25 61.0571ZM113.727 52.3425C114.324 54.0879 115.351 55.6544 116.714 56.8965C118.078 58.1385 119.733 59.0159 121.526 59.4471L121.704 54.5286C118.918 54.511 116.187 53.7568 113.787 52.3425H113.727Z" fill="#231F20"/>
<path d="M122.339 48.192C120.856 48.2318 119.402 47.78 118.203 46.907C114.569 44.2188 114.702 38.3107 114.702 38.0448C114.721 37.8527 114.809 37.6742 114.951 37.5433C115.092 37.4125 115.278 37.3386 115.47 37.3358C115.567 37.3377 115.662 37.3588 115.75 37.3979C115.838 37.437 115.917 37.4932 115.983 37.5634C116.049 37.6336 116.101 37.7162 116.134 37.8065C116.168 37.8967 116.183 37.9928 116.179 38.0891C116.179 38.0891 116.076 43.4803 119.133 45.7106C120.729 46.8922 123.003 47.0104 125.869 46.0651C126.053 46.0038 126.254 46.0176 126.428 46.1032C126.602 46.1889 126.735 46.3397 126.799 46.523C126.831 46.615 126.845 46.7126 126.838 46.8098C126.831 46.9071 126.805 47.002 126.761 47.0889C126.717 47.1758 126.656 47.2529 126.581 47.3156C126.506 47.3782 126.42 47.4251 126.327 47.4535C125.047 47.9186 123.7 48.1682 122.339 48.192Z" fill="#231F20"/>
<path d="M141.452 322.463C141.259 322.46 141.076 322.383 140.938 322.248C140.801 322.114 140.721 321.932 140.713 321.739C140.716 321.546 140.793 321.361 140.927 321.221C141.061 321.081 141.243 320.997 141.437 320.986L146.37 320.912C146.565 320.912 146.752 320.988 146.893 321.122C147.033 321.257 147.116 321.441 147.123 321.636C147.125 321.733 147.108 321.83 147.073 321.92C147.038 322.01 146.985 322.093 146.918 322.163C146.85 322.233 146.77 322.289 146.681 322.328C146.592 322.366 146.497 322.387 146.4 322.389L141.466 322.463H141.452Z" fill="#231F20"/>
<path d="M141.555 327.411L141.245 325.934L146.695 324.738C146.891 324.695 147.096 324.731 147.265 324.839C147.434 324.947 147.553 325.118 147.596 325.314C147.639 325.51 147.603 325.715 147.495 325.884C147.387 326.053 147.216 326.172 147.02 326.215L141.555 327.411Z" fill="#231F20"/>
<path d="M82.8722 55.976C82.8722 55.976 30.9838 135.012 19.5663 159.28L36.7295 169.176L89.1939 95.5311C89.1939 95.5311 91.2322 60.7173 82.8722 55.976Z" fill="#AFC3FE"/>
<path d="M141.451 57.9553C143.652 64.4099 163.267 124.097 168.038 129.887C171.982 134.702 191.671 151.54 191.671 151.54L178.126 168.275C178.126 168.275 157.448 156.946 148.364 143.727C143.46 136.578 139.502 122.31 137.655 116.653C132.442 100.523 141.451 57.9553 141.451 57.9553Z" fill="#AFC3FE"/>
<path d="M47.8221 154.347C47.6692 154.346 47.5201 154.3 47.3937 154.214C47.2356 154.098 47.1286 153.926 47.0955 153.733C47.0624 153.54 47.1058 153.341 47.2165 153.18L85.5161 99.4305C85.5707 99.3511 85.6406 99.2834 85.7217 99.2314C85.8028 99.1794 85.8934 99.1441 85.9884 99.1276C86.0833 99.1111 86.1806 99.1137 86.2745 99.1353C86.3684 99.1569 86.457 99.197 86.5352 99.2533C86.6151 99.3092 86.6831 99.3805 86.7353 99.4629C86.7875 99.5452 86.8228 99.6372 86.8393 99.7333C86.8558 99.8294 86.8531 99.9279 86.8313 100.023C86.8095 100.118 86.7691 100.208 86.7125 100.287L48.3981 154.037C48.3332 154.13 48.2472 154.207 48.1471 154.26C48.047 154.314 47.9357 154.344 47.8221 154.347Z" fill="#231F20"/>
<path d="M136.651 129.961H136.533C136.437 129.947 136.346 129.913 136.263 129.863C136.181 129.813 136.109 129.746 136.053 129.668C135.996 129.589 135.956 129.5 135.934 129.406C135.913 129.312 135.911 129.214 135.927 129.119C136.001 128.676 143.135 84.7044 139.709 62.859C139.679 62.6632 139.729 62.4637 139.847 62.3044C139.964 62.1451 140.14 62.0391 140.336 62.0097C140.532 61.9804 140.732 62.03 140.891 62.1477C141.05 62.2654 141.156 62.4416 141.186 62.6375C144.642 84.7044 137.464 128.912 137.39 129.355C137.361 129.529 137.27 129.686 137.134 129.797C136.999 129.909 136.827 129.967 136.651 129.961Z" fill="#231F20"/>
<path d="M221.3 89.3719C221.3 89.3719 204.004 105.516 202.468 110.242C200.932 114.969 195.201 163.253 195.201 163.253C195.201 163.253 195.024 171.643 193.177 175.173C191.331 178.703 199.632 181.864 205.658 178.038C211.685 174.213 209.056 163.696 209.056 163.696C209.056 163.696 220.591 115.619 221.404 116.032C222.216 116.446 235.258 104.083 235.258 104.083L221.3 89.3719Z" fill="white"/>
<path d="M199.499 180.505C197.271 180.599 195.083 179.897 193.325 178.526C192.776 178.102 192.393 177.498 192.245 176.82C192.096 176.142 192.191 175.434 192.513 174.819C194.27 171.495 194.462 163.312 194.462 163.239C194.699 161.185 200.223 114.747 201.759 110.065C203.295 105.383 220.089 89.5491 220.798 88.8845C220.936 88.7492 221.122 88.6734 221.315 88.6734C221.508 88.6734 221.694 88.7492 221.832 88.8845L235.805 103.581C235.871 103.652 235.922 103.736 235.955 103.827C235.988 103.919 236.002 104.016 235.997 104.113C235.992 104.307 235.913 104.492 235.775 104.63C226.145 113.743 223.043 116.136 221.861 116.653C220.665 119.326 214.077 145.942 209.824 163.711C210.163 165.188 212.083 174.848 206.057 178.674C204.086 179.887 201.814 180.521 199.499 180.505ZM221.271 90.4058C216.16 95.221 204.329 106.875 203.162 110.464C201.685 115.072 195.984 162.855 195.939 163.342C195.895 163.829 195.733 171.879 193.827 175.513C193.658 175.838 193.615 176.215 193.708 176.57C193.801 176.925 194.022 177.232 194.329 177.433C196.191 179.146 201.242 179.959 205.26 177.433C210.769 173.947 208.376 163.992 208.347 163.888C208.317 163.772 208.317 163.65 208.347 163.534C219.734 115.988 220.635 115.575 221.064 115.368C221.171 115.345 221.282 115.345 221.389 115.368C222.629 114.792 229.394 108.662 234.224 104.128L221.271 90.4058Z" fill="#231F20"/>
<path d="M213.058 285.951L202.32 300.559L219.927 311.474L231.994 295.389L213.058 285.951Z" fill="white"/>
<path d="M219.926 312.213C219.787 312.214 219.649 312.178 219.528 312.109L202.01 301.194C201.839 301.08 201.718 300.906 201.67 300.707C201.64 300.5 201.687 300.289 201.803 300.116L212.541 285.508C212.648 285.371 212.799 285.275 212.968 285.234C213.137 285.194 213.315 285.212 213.472 285.286L232.393 294.784C232.49 294.834 232.575 294.905 232.641 294.992C232.708 295.078 232.754 295.179 232.777 295.286C232.803 295.39 232.805 295.499 232.782 295.604C232.759 295.709 232.711 295.808 232.644 295.891L220.591 311.917C220.514 312.019 220.413 312.099 220.297 312.15C220.181 312.202 220.053 312.224 219.926 312.213ZM203.398 300.396L219.734 310.499L230.871 295.729L213.28 286.867C211.596 289.186 205.186 297.9 203.398 300.352V300.396Z" fill="#231F20"/>
<path d="M202.32 300.559C202.32 300.559 193.163 312.375 193.547 313.114C193.931 313.852 234.904 344.84 235.273 342.078C235.642 339.316 219.927 311.474 219.927 311.474L202.32 300.559Z" fill="#233863"/>
<path d="M234.992 342.994C234.136 342.994 231.093 341.96 212.837 328.741C206.234 323.94 193.177 314.192 192.808 313.453C192.572 312.981 192.217 312.272 201.67 300.16C201.784 300.017 201.947 299.922 202.127 299.892C202.307 299.862 202.491 299.899 202.645 299.998L220.237 310.913C220.345 310.974 220.433 311.067 220.488 311.179C223.132 315.861 236.307 339.375 235.923 342.196C235.894 342.395 235.803 342.58 235.662 342.723C235.521 342.867 235.338 342.962 235.14 342.994H234.992ZM194.359 312.892C197.845 316.053 229.099 339.272 234.446 341.369C233.515 337.987 226.293 324.265 219.38 312.006L202.497 301.534C199.575 305.165 196.858 308.957 194.359 312.892Z" fill="#231F20"/>
<path d="M329.183 315.226C329.759 316.378 336.672 329.612 336.672 329.612L355.075 320.499L346.213 302.523L329.183 315.226Z" fill="white"/>
<path d="M336.672 330.351C336.535 330.351 336.401 330.314 336.284 330.243C336.167 330.173 336.071 330.072 336.007 329.952C335.726 329.42 329.094 316.659 328.533 315.566C328.455 315.41 328.433 315.233 328.471 315.063C328.508 314.894 328.603 314.742 328.74 314.635L345.711 301.977C345.799 301.911 345.9 301.867 346.008 301.846C346.115 301.826 346.226 301.83 346.331 301.859C346.435 301.884 346.532 301.932 346.617 301.998C346.701 302.064 346.77 302.148 346.819 302.243L355.681 320.218C355.721 320.306 355.742 320.402 355.742 320.499C355.742 320.596 355.721 320.691 355.681 320.779C355.652 320.872 355.605 320.958 355.541 321.032C355.477 321.106 355.399 321.166 355.312 321.208L336.908 330.277C336.833 330.313 336.754 330.337 336.672 330.351ZM330.128 315.447C331.354 317.825 335.741 326.23 336.982 328.637L354.145 320.203L345.947 303.69L330.128 315.447Z" fill="#231F20"/>
<path d="M253.825 179.456C253.825 179.456 244.386 232.955 240.768 242.733C237.149 252.511 203.664 289.673 203.664 289.673C203.664 289.673 228.228 306.408 229.069 306.526C229.911 306.644 270.678 276.616 276.674 263.456C282.671 250.295 297.914 199.736 297.914 199.736L253.825 179.456Z" fill="#233863"/>
<path d="M228.981 307.205C228.154 307.087 214.55 297.915 203.28 290.234C203.193 290.177 203.12 290.101 203.066 290.011C203.012 289.922 202.98 289.821 202.97 289.717C202.953 289.612 202.96 289.504 202.991 289.402C203.022 289.299 203.075 289.205 203.147 289.127C203.487 288.757 236.558 251.979 240.073 242.437C243.589 232.896 252.997 179.826 253.086 179.294C253.11 179.184 253.157 179.08 253.223 178.988C253.289 178.897 253.373 178.82 253.47 178.762C253.572 178.715 253.683 178.69 253.795 178.69C253.907 178.69 254.018 178.715 254.12 178.762L298.224 199.042C298.386 199.114 298.515 199.242 298.589 199.402C298.662 199.563 298.674 199.745 298.623 199.913C298.475 200.43 283.291 250.679 277.339 263.721C271.726 276.084 231.226 307.205 228.981 307.205ZM204.772 289.481C213.871 295.67 226.928 304.502 229.069 305.728C232.6 303.631 270.426 275.479 276.01 263.16C281.593 250.842 295.211 205.955 297.028 200.15L254.371 180.549C253.057 187.935 244.844 233.871 241.447 243.013C238.05 252.156 209.395 284.459 204.772 289.481Z" fill="#231F20"/>
<path d="M240.871 157.478C240.871 157.478 239.394 166.591 246.912 187.122C254.43 207.653 325.195 320.543 325.195 320.543L355.105 309.347L293.38 157.478H240.871Z" fill="#233863"/>
<path d="M325.166 321.282C325.039 321.28 324.914 321.246 324.803 321.184C324.692 321.122 324.599 321.034 324.53 320.927C321.65 316.319 253.633 207.727 246.247 187.373C238.862 167.02 240.118 157.744 240.177 157.36C240.205 157.188 240.293 157.031 240.425 156.917C240.558 156.804 240.726 156.741 240.9 156.74H293.409C293.555 156.738 293.699 156.781 293.82 156.863C293.941 156.945 294.035 157.061 294.089 157.197L355.784 309.081C355.858 309.261 355.858 309.463 355.784 309.643C355.702 309.823 355.554 309.966 355.371 310.041L325.446 321.237L325.166 321.282ZM241.536 158.217C241.388 160.58 241.373 169.752 247.606 186.871C254.711 206.383 320.291 311.371 325.461 319.642L354.115 308.934L292.892 158.276L241.536 158.217Z" fill="#231F20"/>
<path d="M317.396 97.7467C317.396 97.7467 331.207 160.462 337.248 165.69C343.289 170.919 350.467 181.51 350.763 185.822C351.058 190.135 345.002 193.296 342.137 191.007C339.271 188.717 334.087 181.583 334.087 181.583C334.087 181.583 334.943 191.834 332.92 189.264C330.896 186.694 327.913 172.647 327.913 172.647C327.913 172.647 296.142 108.47 286.556 94.3643L317.396 97.7467Z" fill="white"/>
<path d="M344.529 192.469C343.497 192.492 342.486 192.164 341.664 191.539C339.201 189.228 336.961 186.691 334.973 183.961C335.239 189.766 334.234 190.15 333.865 190.298C333.496 190.446 332.949 190.446 332.388 189.663C330.365 187.093 327.647 174.686 327.263 172.854C325.948 170.21 295.285 108.411 285.906 94.7483C285.829 94.6293 285.789 94.4909 285.789 94.3495C285.789 94.2081 285.829 94.0697 285.906 93.9507C285.978 93.8303 286.083 93.7331 286.209 93.6703C286.334 93.6075 286.475 93.5818 286.615 93.5962L317.514 97.0229C317.669 97.0401 317.814 97.1048 317.931 97.2079C318.047 97.311 318.129 97.4476 318.164 97.599C321.99 114.969 332.935 160.964 337.765 165.085C344.027 170.461 351.25 181.258 351.545 185.763C351.556 187.005 351.208 188.223 350.542 189.272C349.877 190.32 348.922 191.153 347.794 191.672C346.786 192.197 345.666 192.471 344.529 192.469ZM334.087 180.801C334.201 180.802 334.314 180.829 334.416 180.88C334.519 180.931 334.608 181.005 334.678 181.096C334.678 181.096 339.832 188.171 342.595 190.387C343.26 190.8 344.027 191.019 344.81 191.019C345.593 191.019 346.361 190.8 347.026 190.387C347.883 189.998 348.614 189.377 349.136 188.593C349.658 187.81 349.951 186.896 349.98 185.955C349.714 181.864 342.595 171.421 336.686 166.34C330.778 161.259 318.209 104.851 316.791 98.4261L287.988 95.2357C298.461 111.483 328.267 171.658 328.577 172.278C328.584 172.337 328.584 172.396 328.577 172.455C329.375 176.192 331.724 186.088 333.289 188.54C333.531 186.233 333.531 183.906 333.289 181.598C333.275 181.438 333.314 181.278 333.399 181.142C333.485 181.006 333.612 180.902 333.762 180.845L334.087 180.801Z" fill="#231F20"/>
<path d="M308.859 58.7676C308.859 58.7676 264.548 55.917 250.797 61.0866C237.045 66.2562 211.537 96.3139 211.537 96.3139L229.882 114.393L242.245 103.743C242.245 103.743 237.016 121.099 224.83 160.639L300.366 162.899L305.595 103.271L319.833 101.587C319.833 101.587 317.721 68.265 308.859 58.7676Z" fill="#AFC3FE"/>
<path d="M274.725 62.0762L261.003 163.829L281.401 166.252L293.38 57.8371L274.725 62.0762Z" fill="#233863"/>
<path d="M281.401 166.99H281.312L260.914 164.568C260.818 164.56 260.724 164.53 260.639 164.482C260.555 164.433 260.483 164.367 260.427 164.287C260.367 164.211 260.323 164.123 260.297 164.029C260.272 163.935 260.266 163.837 260.279 163.741L274.001 62.0171C274.021 61.8691 274.085 61.7306 274.185 61.6198C274.285 61.5091 274.417 61.4313 274.562 61.3968L293.217 57.1724C293.331 57.1464 293.449 57.1475 293.562 57.1758C293.675 57.204 293.779 57.2585 293.867 57.3349C293.953 57.4156 294.021 57.5144 294.064 57.6242C294.107 57.7341 294.126 57.8522 294.118 57.97L282.125 166.37C282.116 166.467 282.088 166.561 282.042 166.648C281.996 166.734 281.934 166.81 281.859 166.872C281.723 166.96 281.562 167.001 281.401 166.99ZM261.83 163.179L280.751 165.41L292.567 58.7676L275.419 62.667L261.83 163.179Z" fill="#231F20"/>
<path d="M293.985 48.8862C295.634 49.2326 297.347 49.115 298.933 48.5465C299.482 48.3887 299.971 48.0697 300.337 47.6308C300.511 47.4073 300.606 47.1317 300.606 46.8479C300.606 46.5642 300.511 46.2886 300.337 46.0651C299.687 45.3857 298.254 45.8288 297.826 44.9869C301.814 40.7478 303.808 33.7023 303.941 28.0157C304.03 21.3221 302.419 14.7154 299.258 8.8142C298.373 6.81793 296.913 5.1311 295.063 3.96951C294.135 3.40547 293.041 3.17831 291.965 3.32626C290.889 3.47422 289.897 3.98825 289.155 4.78188C285.625 1.31084 280.293 0.232606 275.345 0.926814C270.796 1.57671 266.955 3.64456 262.864 5.53517C258.937 7.13718 254.778 8.0948 250.546 8.37109C250.361 8.33357 250.17 8.34505 249.991 8.40438C249.812 8.46371 249.652 8.56882 249.527 8.70925C249.401 8.84968 249.315 9.02053 249.276 9.20479C249.237 9.38906 249.247 9.58031 249.305 9.7595C249.615 11.8126 250.329 13.7837 251.407 15.5585C252.484 17.3334 253.904 18.8766 255.582 20.0988C254.62 20.2909 253.622 20.1719 252.732 19.7591C253.13 23.5107 257.355 25.49 261.033 26.3762C263.706 27.0261 266.941 27.5874 269.038 29.4927C271.401 31.5901 273.1 34.7953 275.271 37.1733C278.686 41.0475 283.018 44.0032 287.87 45.7697C289.658 46.4048 290.101 47.2467 291.666 48.1182C292.401 48.4779 293.181 48.7363 293.985 48.8862Z" fill="white"/>
<path d="M295.876 49.8168C295.191 49.8138 294.509 49.7446 293.838 49.61C292.963 49.4256 292.119 49.1225 291.327 48.709C290.733 48.3916 290.169 48.0208 289.643 47.6012C289.051 47.0762 288.364 46.67 287.619 46.4048C282.703 44.6122 278.308 41.6281 274.828 37.7199C273.896 36.6454 273.024 35.5212 272.214 34.3522C271.179 32.8096 269.986 31.379 268.654 30.0836C266.662 28.656 264.358 27.7243 261.934 27.3658L260.959 27.1443C257.857 26.391 252.584 24.4413 252.096 19.8772C252.081 19.7465 252.102 19.6141 252.157 19.4944C252.212 19.3747 252.298 19.2721 252.407 19.1978C252.517 19.1283 252.645 19.0914 252.776 19.0914C252.906 19.0914 253.034 19.1283 253.145 19.1978L253.5 19.3307C250.904 16.8068 249.208 13.5019 248.67 9.92199C248.594 9.64624 248.586 9.3561 248.648 9.07674C248.709 8.79739 248.838 8.53727 249.023 8.31897C249.208 8.10066 249.443 7.93076 249.708 7.82401C249.974 7.71727 250.261 7.67691 250.546 7.70643C254.699 7.42611 258.782 6.48886 262.642 4.9296L264.415 4.08769C267.832 2.25132 271.515 0.960548 275.33 0.262159C277.764 -0.164715 280.26 -0.0694166 282.653 0.541735C285.047 1.15289 287.284 2.26593 289.214 3.80705C290.1 3.1337 291.164 2.73435 292.274 2.65824C293.384 2.58213 294.493 2.83257 295.462 3.37871C297.404 4.6101 298.943 6.38102 299.893 8.47449C303.131 14.4841 304.783 21.2197 304.694 28.0453C304.59 32.8899 303.01 40.0536 298.978 44.854H299.229C299.84 44.8809 300.423 45.1153 300.883 45.5186C301.169 45.8772 301.325 46.3225 301.325 46.7815C301.325 47.2404 301.169 47.6857 300.883 48.0443C300.426 48.5993 299.814 49.0055 299.125 49.2112C298.085 49.5977 296.986 49.8025 295.876 49.8168ZM294.133 48.1625C295.649 48.4757 297.222 48.3685 298.682 47.8523C299.092 47.7435 299.462 47.5177 299.746 47.2024C299.816 47.1171 299.861 47.0132 299.874 46.9031C299.887 46.7931 299.868 46.6816 299.82 46.5821C299.572 46.4353 299.294 46.3492 299.007 46.331C298.644 46.3299 298.288 46.2374 297.97 46.0618C297.652 45.8862 297.384 45.6334 297.19 45.3266C297.121 45.1912 297.095 45.0376 297.116 44.8869C297.137 44.7362 297.205 44.5957 297.309 44.4847C301.503 40.0536 303.113 32.8161 303.217 28.0009C303.325 21.4147 301.744 14.9106 298.623 9.10962C297.786 7.29599 296.448 5.75883 294.768 4.67851C293.997 4.21688 293.093 4.02712 292.202 4.13958C291.31 4.25204 290.482 4.66022 289.85 5.29886C289.779 5.37539 289.693 5.43648 289.598 5.47826C289.503 5.52004 289.4 5.54161 289.296 5.54161C289.192 5.54161 289.089 5.52004 288.993 5.47826C288.898 5.43648 288.812 5.37539 288.742 5.29886C286.965 3.72808 284.854 2.58307 282.568 1.95088C280.283 1.3187 277.883 1.216 275.552 1.65058C271.885 2.33554 268.347 3.58626 265.065 5.35794L263.278 6.19985C259.277 7.84911 255.039 8.84645 250.723 9.15393C250.518 9.15374 250.317 9.19915 250.132 9.28686C250.1 9.42286 250.1 9.56445 250.132 9.70044C250.414 11.6565 251.081 13.5372 252.095 15.2334C253.11 16.9296 254.45 18.4077 256.04 19.5818C256.156 19.6663 256.245 19.782 256.298 19.9154C256.35 20.0489 256.363 20.1945 256.336 20.3351C256.308 20.4779 256.239 20.6091 256.136 20.7119C256.033 20.8146 255.902 20.8841 255.759 20.9112C255.106 21.0368 254.434 21.0368 253.78 20.9112C254.903 23.7618 258.817 25.1355 261.165 25.7263L262.126 25.9479C264.798 26.3477 267.332 27.392 269.511 28.9906C270.93 30.3568 272.198 31.8722 273.292 33.5103C274.068 34.6341 274.907 35.714 275.803 36.745C279.121 40.4679 283.306 43.3142 287.988 45.0312C288.891 45.3652 289.723 45.8663 290.44 46.5082C290.901 46.8785 291.396 47.2049 291.917 47.4831C292.59 47.8258 293.306 48.079 294.044 48.2364L294.133 48.1625Z" fill="#231F20"/>
<path d="M262.894 29.8915C262.894 29.8915 257.414 38.931 258.684 40.7182C259.954 42.5054 263.927 41.1318 263.927 41.1318" fill="white"/>
<path d="M261.092 42.3725C260.537 42.4188 259.98 42.3316 259.466 42.1184C258.952 41.9051 258.496 41.5719 258.138 41.1466C256.66 39.1821 260.589 32.3582 262.303 29.5075C262.353 29.4241 262.42 29.3515 262.498 29.2937C262.577 29.2359 262.666 29.1942 262.76 29.1709C262.855 29.1476 262.953 29.1431 263.05 29.1578C263.146 29.1725 263.239 29.206 263.322 29.2564C263.405 29.3069 263.478 29.3732 263.536 29.4517C263.594 29.5302 263.635 29.6194 263.659 29.714C263.682 29.8086 263.686 29.9069 263.672 30.0033C263.657 30.0997 263.623 30.1922 263.573 30.2756C260.781 34.8692 258.802 39.5514 259.334 40.2751C260.117 41.3681 262.835 40.733 263.765 40.4228C263.857 40.3908 263.955 40.3773 264.052 40.383C264.149 40.3887 264.245 40.4135 264.333 40.456C264.42 40.4985 264.499 40.5579 264.564 40.6308C264.628 40.7037 264.678 40.7886 264.71 40.8807C264.742 40.9729 264.756 41.0704 264.75 41.1678C264.745 41.2651 264.72 41.3604 264.677 41.4482C264.635 41.536 264.575 41.6145 264.502 41.6794C264.43 41.7442 264.345 41.794 264.252 41.826C263.233 42.1704 262.167 42.3547 261.092 42.3725Z" fill="#231F20"/>
<path d="M263.691 18.1934C260.102 21.369 261.417 27.7203 261.623 31.8855C261.889 37.7346 262.293 43.5788 262.834 49.418C263.174 53.1106 272.775 52.83 274.429 51.6483L274.016 63.952C274.016 63.952 276.527 70.643 284.148 66.7584C291.77 62.8738 293.38 57.8962 293.38 57.8962L292.109 40.9546C292.109 40.9546 285.758 41.2352 281.77 33.8205C277.782 26.4057 277.339 14.7519 277.339 14.7519C277.339 14.7519 267.192 15.1064 263.691 18.1934Z" fill="white"/>
<path d="M279.747 68.7081C278.923 68.7125 278.107 68.5622 277.339 68.265C275.522 67.4981 274.083 66.043 273.336 64.2179C273.316 64.1205 273.316 64.0199 273.336 63.9225L273.72 52.7561C270.636 53.476 267.409 53.2862 264.43 52.2096C263.833 52.0117 263.304 51.6509 262.902 51.168C262.5 50.6851 262.242 50.0994 262.155 49.4771C261.623 43.6576 261.21 37.7494 260.944 31.9151C260.944 31.2209 260.84 30.4381 260.781 29.6848C260.427 25.6081 259.999 20.5271 263.263 17.6469C266.926 14.4122 276.97 14.0577 277.398 14.0429C277.497 14.0358 277.595 14.0506 277.687 14.0864C277.779 14.1221 277.862 14.1779 277.93 14.2497C278.072 14.3855 278.156 14.5705 278.166 14.7667C278.166 14.8848 278.491 26.3024 282.405 33.466C286.172 40.3638 291.888 40.2161 292.109 40.2161C292.206 40.2059 292.304 40.2157 292.397 40.2448C292.489 40.274 292.575 40.322 292.648 40.3857C292.722 40.4494 292.781 40.5276 292.823 40.6153C292.865 40.703 292.889 40.7983 292.892 40.8955L294.177 57.7928C294.192 57.8858 294.192 57.9805 294.177 58.0734C294.177 58.295 292.36 63.4351 284.576 67.4083C283.095 68.2259 281.438 68.6719 279.747 68.7081ZM274.769 63.8191C275.389 65.199 276.5 66.2992 277.886 66.9061C278.872 67.1973 279.908 67.2754 280.927 67.1354C281.946 66.9953 282.923 66.6403 283.794 66.0938C290.352 62.7557 292.301 58.5166 292.656 57.7337L291.43 41.6636C289.569 41.5159 284.532 40.5115 281.091 34.175C277.649 27.8385 276.837 18.2968 276.66 15.5643C274.296 15.6972 266.926 16.3323 264.179 18.7547C261.476 21.1475 261.874 25.8002 262.185 29.5518C262.185 30.3642 262.318 31.147 262.347 31.856C262.628 37.6608 263.026 43.5394 263.573 49.3441C263.573 49.9497 264.105 50.4667 264.976 50.8212C267.812 52.121 273.1 51.6336 274.016 50.9837C274.128 50.9074 274.26 50.8637 274.396 50.8575C274.532 50.8513 274.667 50.8828 274.786 50.9485C274.905 51.0142 275.004 51.1116 275.071 51.2299C275.139 51.3482 275.172 51.4827 275.168 51.6188L274.769 63.8191Z" fill="#231F20"/>
<path d="M262.805 45.046C262.805 45.046 267.443 47.6603 269.688 42.8747L262.805 45.046Z" fill="white"/>
<path d="M265.597 46.4934C264.497 46.4663 263.417 46.1938 262.436 45.6958C262.268 45.597 262.146 45.4372 262.093 45.2501C262.041 45.0629 262.063 44.8627 262.155 44.6915C262.201 44.6059 262.264 44.5304 262.34 44.4693C262.416 44.4081 262.503 44.3625 262.596 44.335C262.689 44.3076 262.787 44.2988 262.884 44.3093C262.98 44.3198 263.074 44.3493 263.159 44.3961C264.247 44.9717 265.506 45.1343 266.704 44.8539C267.229 44.6587 267.707 44.3534 268.104 43.9585C268.502 43.5636 268.81 43.0884 269.008 42.5645C269.05 42.4758 269.108 42.3962 269.18 42.3303C269.253 42.2643 269.337 42.2134 269.429 42.1804C269.521 42.1475 269.619 42.1331 269.717 42.1382C269.814 42.1433 269.91 42.1677 269.998 42.21C270.086 42.2497 270.166 42.3067 270.231 42.3776C270.297 42.4484 270.348 42.5318 270.381 42.6226C270.414 42.7135 270.429 42.8101 270.424 42.9066C270.419 43.0032 270.395 43.0978 270.353 43.1849C270.07 43.8967 269.637 44.5394 269.084 45.0694C268.531 45.5995 267.871 46.0045 267.147 46.2571C266.647 46.4199 266.123 46.4997 265.597 46.4934Z" fill="#231F20"/>
<path d="M274.267 33.2149C274.377 31.7465 274.888 30.3365 275.744 29.1383C276.28 28.1285 276.962 27.2029 277.767 26.391C278.175 25.9928 278.666 25.6897 279.205 25.5033C279.744 25.3169 280.317 25.2518 280.884 25.3128C281.378 25.4168 281.844 25.6247 282.251 25.9226C282.659 26.2206 282.998 26.6017 283.247 27.0409C283.759 27.9444 284.048 28.9572 284.089 29.995C284.272 32.1903 283.872 34.3949 282.931 36.3866C281.99 38.3782 280.54 40.0863 278.727 41.3386L279.038 40.9694" fill="white"/>
<path d="M278.727 42.018C278.624 42.0169 278.522 41.9939 278.427 41.9506C278.333 41.9074 278.249 41.8448 278.181 41.7669C278.063 41.6322 277.997 41.4589 277.997 41.2795C277.997 41.1001 278.063 40.9269 278.181 40.7921L278.491 40.4376C278.553 40.3631 278.629 40.3023 278.716 40.259C278.802 40.2158 278.897 40.1911 278.993 40.1865C280.503 38.9715 281.696 37.4077 282.468 35.6298C283.239 33.8519 283.568 31.9131 283.424 29.9802C283.367 29.0848 283.115 28.2127 282.686 27.4249C282.491 27.0753 282.225 26.7708 281.904 26.5315C281.583 26.2922 281.215 26.1235 280.825 26.0365C280.368 25.9947 279.908 26.0538 279.477 26.2095C279.045 26.3651 278.653 26.6137 278.329 26.9375C277.555 27.6948 276.902 28.5666 276.394 29.5223C275.605 30.6045 275.125 31.8809 275.005 33.2149C275.005 33.4097 274.93 33.5969 274.795 33.7374C274.66 33.8778 274.476 33.9605 274.282 33.9682C274.183 33.9743 274.085 33.9601 273.993 33.9263C273.901 33.8925 273.817 33.8399 273.746 33.7718C273.675 33.7038 273.619 33.6218 273.582 33.531C273.544 33.4402 273.526 33.3426 273.528 33.2444C273.63 31.6462 274.183 30.1097 275.123 28.8133C275.682 27.7209 276.41 26.7238 277.28 25.8592C277.767 25.3852 278.354 25.0263 278.999 24.809C279.643 24.5918 280.327 24.5216 281.002 24.6038C281.603 24.721 282.171 24.9664 282.668 25.3233C283.165 25.6802 283.579 26.1401 283.882 26.6716C284.436 27.6493 284.759 28.7405 284.828 29.862C285.022 32.1913 284.598 34.5307 283.6 36.6441C282.601 38.7576 281.063 40.5704 279.141 41.8999C279.019 41.982 278.874 42.0234 278.727 42.018Z" fill="#231F20"/>
<path d="M274.385 51.6779C274.385 51.6779 279.318 49.9497 281.504 46.4344C281.504 46.4344 281.504 55.2966 273.971 58.2507L274.385 51.6779Z" fill="#231F20"/>
<path d="M274.016 58.9449C273.86 58.9473 273.708 58.8951 273.587 58.7972C273.486 58.7267 273.404 58.6313 273.349 58.5201C273.295 58.4089 273.27 58.2856 273.277 58.1621L273.706 51.604C273.714 51.4599 273.765 51.3215 273.852 51.206C273.938 51.0905 274.057 51.0029 274.193 50.9541C274.193 50.9541 278.89 49.2555 280.913 46.0208C280.996 45.8811 281.123 45.7726 281.274 45.7121C281.424 45.6517 281.591 45.6426 281.747 45.6864C281.904 45.7301 282.042 45.8242 282.139 45.9541C282.237 46.084 282.289 46.2424 282.287 46.4048C282.287 46.5082 282.198 55.8727 274.282 58.9006C274.196 58.9295 274.106 58.9445 274.016 58.9449ZM275.138 52.1653L274.828 57.0395C276.332 56.178 277.623 54.9904 278.607 53.5641C279.591 52.1378 280.243 50.5091 280.515 48.7976C278.936 50.2293 277.115 51.3695 275.138 52.1653Z" fill="#231F20"/>
<path d="M266.502 27.7678C266.949 27.6743 267.119 26.6794 266.882 25.5455C266.645 24.4117 266.091 23.5683 265.643 23.6618C265.196 23.7553 265.026 24.7503 265.263 25.8841C265.5 27.018 266.055 27.8613 266.502 27.7678Z" fill="#231F20"/>
<path d="M281.844 250.561C281.728 250.56 281.615 250.53 281.514 250.473C281.413 250.417 281.328 250.335 281.268 250.236C280.057 248.109 251.535 198.451 251.24 197.905C251.161 197.75 251.147 197.57 251.199 197.404C251.252 197.239 251.367 197.1 251.52 197.018C251.597 196.978 251.681 196.953 251.767 196.945C251.853 196.937 251.94 196.946 252.023 196.972C252.105 196.998 252.182 197.041 252.248 197.097C252.314 197.153 252.368 197.222 252.407 197.299C252.835 198.097 282.11 248.995 282.405 249.571C282.492 249.723 282.516 249.902 282.471 250.07C282.427 250.239 282.319 250.383 282.169 250.472C282.07 250.529 281.958 250.559 281.844 250.561Z" fill="white"/>
<path d="M336.672 329.612C336.672 329.612 343.85 344.855 344.722 344.855C345.593 344.855 391.617 322.109 389.313 320.543C387.009 318.977 355.076 320.543 355.076 320.543L336.672 329.612Z" fill="#233863"/>
<path d="M344.721 345.608C344.19 345.608 343.392 345.608 336.007 329.937C335.965 329.852 335.94 329.759 335.934 329.665C335.928 329.57 335.942 329.475 335.974 329.385C336.005 329.296 336.055 329.213 336.119 329.143C336.183 329.073 336.26 329.017 336.347 328.977L354.751 319.893C354.845 319.853 354.944 319.828 355.046 319.819C360.422 319.554 387.334 318.342 389.727 319.952C389.893 320.067 390.018 320.233 390.082 320.425C390.146 320.617 390.146 320.824 390.081 321.016C389.904 321.607 389.417 323.172 367.365 334.56C360.053 338.297 345.549 345.608 344.721 345.608ZM337.646 329.967C339.817 334.782 342.238 339.48 344.899 344.043C349.33 342.315 384.04 324.841 388.294 320.971C384.853 320.292 369.329 320.587 355.268 321.282L337.646 329.967Z" fill="#233863"/>
<path d="M302.079 133.55H301.976C301.881 133.539 301.788 133.509 301.705 133.462C301.621 133.416 301.547 133.352 301.488 133.277C301.429 133.201 301.386 133.115 301.36 133.022C301.335 132.93 301.328 132.833 301.341 132.738C303.615 113.536 306.496 76.758 306.525 76.3887C306.532 76.2917 306.558 76.197 306.601 76.11C306.645 76.023 306.705 75.9454 306.778 75.8816C306.851 75.8179 306.937 75.7692 307.029 75.7383C307.121 75.7075 307.219 75.6951 307.315 75.7019C307.412 75.7087 307.507 75.7345 307.594 75.7779C307.681 75.8213 307.759 75.8814 307.823 75.9547C307.886 76.0281 307.935 76.1133 307.966 76.2055C307.997 76.2977 308.009 76.3951 308.002 76.4921C308.002 76.8614 305.048 113.743 302.803 132.915C302.778 133.09 302.692 133.25 302.559 133.367C302.426 133.483 302.256 133.548 302.079 133.55Z" fill="#231F20"/>
<path d="M229.882 115.191C229.775 115.193 229.67 115.172 229.572 115.129C229.475 115.086 229.389 115.021 229.32 114.939C229.252 114.872 229.197 114.792 229.16 114.703C229.122 114.614 229.103 114.519 229.103 114.422C229.103 114.326 229.122 114.231 229.16 114.142C229.197 114.053 229.252 113.973 229.32 113.905L257.931 88.7958C258.08 88.6666 258.274 88.6017 258.47 88.6156C258.667 88.6294 258.85 88.7208 258.979 88.8697C259.109 89.0186 259.174 89.2127 259.16 89.4093C259.146 89.606 259.054 89.7891 258.906 89.9184L230.369 114.954C230.241 115.09 230.068 115.174 229.882 115.191Z" fill="#231F20"/>
<path d="M202.173 171.702C201.814 172.327 201.582 173.017 201.491 173.732C201.399 174.446 201.45 175.172 201.641 175.867C201.966 176.529 202.459 177.094 203.071 177.506C203.682 177.918 204.391 178.163 205.127 178.216C210.651 178.895 215.998 171.953 213.753 166.769C210.518 159.339 203.901 167.832 202.173 171.702Z" fill="white"/>
<path d="M205.88 178.999C205.599 179.013 205.318 179.013 205.038 178.999C204.171 178.927 203.338 178.629 202.622 178.133C201.907 177.638 201.334 176.964 200.961 176.177C200.509 174.588 200.7 172.885 201.493 171.436C202.793 168.482 206.722 163.135 210.355 163.135C212.084 163.135 213.457 164.287 214.432 166.532C214.958 167.967 215.099 169.515 214.84 171.02C214.581 172.526 213.931 173.938 212.955 175.114C212.153 176.261 211.098 177.209 209.871 177.882C208.644 178.556 207.278 178.938 205.88 178.999ZM210.311 164.568C207.534 164.568 204.019 169.324 202.822 171.953C202.499 172.486 202.285 173.077 202.194 173.694C202.102 174.31 202.135 174.939 202.291 175.542C202.575 176.088 202.997 176.551 203.515 176.882C204.034 177.214 204.63 177.404 205.245 177.433C206.535 177.508 207.823 177.244 208.979 176.666C210.135 176.088 211.119 175.217 211.832 174.139C212.645 173.165 213.189 171.996 213.412 170.748C213.634 169.499 213.528 168.215 213.103 167.02C212.379 165.365 211.463 164.524 210.385 164.524L210.311 164.568Z" fill="#231F20"/>
</svg>
