<svg width="266" height="160" viewBox="0 0 266 160" fill="none" xmlns="http://www.w3.org/2000/svg">
<path d="M1 138.791H57.4672L41.4777 88.9523C41.2112 88.2824 41.1579 86.9426 43.0767 86.9426C44.9954 86.9426 81.9843 89.6221 100.239 90.9619C101.838 91.3637 105.595 92.7304 107.834 101.412C110.072 110.093 115.695 129.949 118.227 138.791H140.213C136.615 133.164 129.1 124 127.821 132.36C126.222 142.81 120.626 129.145 124.223 123.116C127.821 117.087 136.215 113.872 139.413 117.489C142.611 121.106 155.802 129.145 153.404 133.968C151.005 138.791 147.408 138.389 153.404 128.341C161.532 130.886 180.746 134.45 192.578 128.341C207.368 120.704 203.771 131.958 194.577 127.537C194.177 126.599 193.777 123.277 195.376 117.489C197.375 110.254 193.777 89.3542 195.376 86.9426C196.975 84.5311 202.571 64.8368 214.564 62.8272C226.556 60.8175 179.387 45.1425 178.587 51.1714C177.788 57.2002 180.186 60.8175 169.393 70.0617C158.6 79.306 155.003 65.2386 150.206 63.6309C145.409 62.0232 149.806 55.9944 145.009 52.779C140.213 49.5636 135.416 50.7694 129.02 57.2002C122.624 63.6309 114.629 69.6598 121.825 73.6791C129.02 77.6983 129.819 75.6887 131.818 70.8656C133.817 66.0425 136.215 68.454 138.214 70.0617C140.213 71.6694 141.812 69.2578 141.412 66.0425C141.012 62.8272 134.217 59.6117 142.211 68.0521C143.81 66.7124 145.409 63.0683 139.013 59.2098C140.879 58.6739 144.61 59.2902 144.61 66.0425C146.209 65.2386 148.527 62.4252 145.009 57.6021C140.612 51.5732 135.016 54.3867 133.817 56.3963C132.618 58.4059 130.619 64.4348 131.418 67.6502C132.218 70.8656 127.821 78.1002 122.624 76.4925C117.428 74.8848 119.826 68.856 114.629 74.4829C110.472 78.9845 109.966 94.8471 110.232 102.216C109.433 103.02 107.834 102.939 107.834 96.1868C107.834 89.4345 110.765 74.6169 112.231 68.0521C114.363 68.454 118.707 68.6148 119.027 66.0425C119.426 62.8271 116.628 61.6213 117.827 54.3867C119.027 47.152 117.428 34.2905 111.432 29.0655C105.436 23.8404 99.0397 12.9885 85.8484 21.027C83.45 19.4193 78.0136 20.8662 75.4553 39.5155C72.2574 62.8272 84.2495 61.6213 85.8484 68.0521C87.4474 74.4829 87.0477 80.8325 85.049 72.4733C83.0503 64.1141 81.0516 59.6117 73.4566 66.0425C65.8616 72.4733 61.4645 83.7273 65.0622 86.9426C68.6598 90.158 64.6624 74.081 72.6571 70.8656C80.6519 67.6502 83.45 68.4541 83.45 77.6984C83.45 86.9426 83.8498 88.5503 89.8458 87.7465C95.8419 86.9426 96.2416 81.7176 95.0424 79.708C93.8432 77.6984 87.4474 76.8945 89.8458 68.0521C91.7645 60.9782 96.7746 59.2098 99.0397 59.2098C101.172 59.2098 105.515 58.0844 105.835 53.5829C106.235 47.956 109.833 48.3578 107.834 52.779C105.835 57.2002 108.633 58.004 109.433 52.779C110.232 47.554 112.231 47.1521 112.231 48.7598C112.231 50.3675 117.827 63.631 107.834 66.4445C97.8405 69.2579 93.8432 79.708 93.0437 79.708C92.2442 79.708 85.8484 84.531 87.8471 68.0521C89.8458 51.5733 81.0516 56.7983 81.8511 44.7406C82.6506 32.6828 86.2482 19.8212 102.637 31.0751C119.027 42.329 111.831 82.5214 103.837 85.7368C95.8419 88.9523 93.0437 83.3253 105.835 85.7368C116.069 87.6661 123.424 81.9855 125.822 78.9041C125.156 81.1817 124.623 87.6661 127.821 95.383C131.818 105.029 128.221 116.685 126.622 116.283C125.023 115.881 131.019 98.5985 130.619 97.3926C130.219 96.1868 127.021 91.3638 130.619 104.225C134.217 117.087 125.023 129.547 135.416 113.872C145.809 98.1965 135.416 79.708 135.815 88.5503C136.215 97.3927 146.608 132.762 162.198 134.772C177.788 136.781 200.573 137.585 207.368 134.772C214.164 131.958 222.958 107.843 219.36 85.7368C215.763 63.631 220.16 65.6405 196.575 56.3963C172.991 47.1521 178.587 51.1713 175.789 43.9367C179.387 28.1277 180.266 -2.52575 155.003 1.33272C123.424 6.15581 122.624 20.625 134.217 21.4289C132.085 24.7782 129.1 32.2808 134.217 35.4962C140.612 39.5155 130.219 45.5443 134.217 46.7501C138.214 47.9559 138.214 46.3481 138.214 49.9655C138.214 53.5829 151.805 48.7597 151.005 40.7212C150.206 32.6827 149.407 33.0847 142.211 32.6827C135.016 32.2808 133.417 29.8693 133.817 25.0462C134.217 20.2231 139.413 19.0173 142.211 19.4192C145.009 19.8212 148.607 18.6154 150.206 17.8115C151.805 17.0077 153.404 19.8212 152.205 25.0462C151.005 30.2712 159.8 23.8403 160.999 37.5058L165.796 36.3001C166.595 33.4866 169.233 28.1009 173.391 29.0655C178.587 30.2712 171.392 43.1328 169.393 42.3289C168.327 47.5109 164.197 58.5436 156.202 61.2194C146.209 64.5641 151.005 74.483 163.397 77.6984C173.311 80.2706 179.52 64.5688 181.385 56.3963C186.182 58.4059 198.894 62.0232 211.366 60.4155C226.955 58.4059 226.556 119.499 221.359 128.341C216.163 137.183 224.557 131.154 212.965 138.791H265.32" stroke="black" stroke-linecap="round" stroke-linejoin="round"/>
<g style="mix-blend-mode:multiply">
<path d="M59.958 140.777C69.9961 142.479 114.588 145.159 117.592 137.465C120.845 129.13 94.0623 132.172 83.1441 124.216C72.226 116.26 43.9628 70.3624 42.7344 92.4183C41.5061 114.474 49.9199 139.075 59.958 140.777Z" fill="#9D9FAA"/>
</g>
</svg>
